<?xml version="1.0" standalone="no"?>
<!DOCTYPE svg PUBLIC "-//W3C//DTD SVG 1.1//EN" "http://www.w3.org/Graphics/SVG/1.1/DTD/svg11.dtd" >
<svg xmlns="http://www.w3.org/2000/svg">
<metadata>
Created by FontPrep 20130207 at Tue Jul 22 16:16:39 2014
 By Luis
(c)2003 G-Type.  Designed and digitized by Nick Cooke  01943 461 808
</metadata>
<defs>
<font id="003b179bb4067e81f3dd7e275143797f" horiz-adv-x='1024' >
  <font-face 
    font-family="ChevinDemiBold"
    font-weight="600"
    font-stretch="normal"
    units-per-em="2048"
    panose-1="0 0 6 0 0 0 0 0 0 0"
    ascent="1638"
    descent="-410"
    x-height="1049"
    cap-height="1511"
    bbox="-137 -514 1858 2072"
    underline-thickness="40"
    underline-position="-252"
    unicode-range="U+0020-F002"
  />
<missing-glyph 
d="M256 129h512v1301h-512v-1301zM129 0v1556h768v-1556h-768z" />
    <glyph glyph-name=".notdef" 
d="M256 129h512v1301h-512v-1301zM129 0v1556h768v-1556h-768z" />
    <glyph glyph-name="glyph1" horiz-adv-x="0" 
 />
    <glyph glyph-name="glyph2" horiz-adv-x="616" 
 />
    <glyph glyph-name="space" unicode=" " horiz-adv-x="616" 
 />
    <glyph glyph-name="exclam" unicode="!" horiz-adv-x="606" 
d="M457 122.5q0 -59.5 -42.5 -100t-100.5 -40.5t-100 42t-42 100t42 99t100 41t100.5 -41t42.5 -100.5zM314 444q-92 0 -93 113l-26 825q-2 55 29.5 92t89.5 37t90 -37t30 -92l-26 -825q-2 -113 -94 -113z" />
    <glyph glyph-name="quotedbl" unicode="&#x22;" horiz-adv-x="794" 
d="M191 1047q-80 0 -89 100l-18 239q-4 51 22.5 88t84 37t85 -37t23.5 -88l-20 -239q-8 -100 -88 -100zM584 1047q-80 0 -88 100l-21 239q-4 51 23.5 88t85 37t85 -37t23.5 -88l-20 -239q-8 -100 -88 -100z" />
    <glyph glyph-name="numbersign" unicode="#" horiz-adv-x="1507" 
d="M942 926h-332l-55 -363h332zM1452 1031q0 -44 -30.5 -74.5t-75.5 -30.5h-191l-55 -363h157q45 0 76 -30.5t31 -74.5t-30.5 -75t-76.5 -31h-190l-43 -282q-6 -43 -42 -69t-79 -19.5t-67.5 42t-18.5 78.5l37 250h-332l-43 -282q-6 -43 -42 -69t-79 -19.5t-67.5 42
t-18.5 78.5l37 250h-159q-45 0 -76 31t-31 75t30.5 74.5t76.5 30.5h192l55 363h-159q-45 0 -76 30.5t-31 74.5t31 76t76 32h190l43 284q6 43 42 68t79 18.5t68.5 -41t19.5 -77.5l-39 -252h332l45 284q6 43 41 68t78 18.5t68.5 -41t19.5 -77.5l-39 -252h160q45 0 75.5 -32
t30.5 -76z" />
    <glyph glyph-name="dollar" unicode="$" horiz-adv-x="1191" 
d="M1104 460q0 -208 -115 -327t-317 -143v-123q0 -39 -27 -66.5t-65.5 -27.5t-65.5 27.5t-27 66.5v115q-176 6 -313 61q-78 31 -78 107q0 43 29 75.5t70 32.5t157.5 -32.5t190.5 -32.5q328 0 327 235q0 80 -44 123t-154 76q-4 2 -165 37t-222 69q-182 96 -183 322
q0 182 106 299t279 145v127q0 39 27 65.5t65.5 26.5t65.5 -26.5t27 -65.5v-117q150 -6 264 -49q80 -31 80 -104q0 -45 -30 -79t-69 -34t-140 28t-161 27q-135 0 -207.5 -58t-72.5 -150t47 -133q47 -40 166 -69t226 -54q106 -25 173 -66q156 -100 156 -308z" />
    <glyph glyph-name="percent" unicode="%" horiz-adv-x="1193" 
d="M940 207v135q0 96 -88 96t-88 -96v-135q0 -98 88 -98t88 98zM430 1149v137q0 96 -88 96t-88 -96v-137q0 -96 88 -96t88 96zM1083 209q0 -106 -66.5 -166.5t-164.5 -60.5t-166 60t-68 167v129q0 106 68 168t166 61q98 0 164.5 -61.5t66.5 -167.5v-129zM349 -18
q-38 0 -58.5 19t-20.5 37t4 36l512 1392q14 45 54 45t61 -20.5t21 -38.5t-4 -35l-515 -1392q-16 -43 -54 -43zM573 1155q0 -111 -65.5 -170t-165.5 -59t-165.5 59t-65.5 170v127q0 106 66.5 167.5t164.5 61.5t164.5 -61t66.5 -168v-127z" />
    <glyph glyph-name="ampersand" unicode="&#x26;" horiz-adv-x="1288" 
d="M319 414q0 -100 62.5 -163t169.5 -63q159 0 268 115l-293 383q-207 -117 -207 -272zM1233 89q0 -42 -32 -74.5t-84 -32.5t-85 45l-84 108q-170 -153 -396 -153t-338 125t-114 301q0 248 299 442q-143 182 -143 339t119 245q101 78 249 78t244 -54q127 -72 127 -174
q0 -45 -31.5 -76.5t-68.5 -31.5t-59 20t-35 32.5t-25 22.5q-147 106 -241 25q-45 -39 -45 -110t112 -216l348 -454q39 80 49 194q4 43 34 70.5t74 27.5t75.5 -31.5t31.5 -76.5q-2 -184 -116 -373l108 -143q27 -33 27 -75z" />
    <glyph glyph-name="quotesingle" unicode="'" horiz-adv-x="421" 
d="M211 1047q-80 0 -88 100l-21 239q-4 51 24 88t85 37t84.5 -37t23.5 -88l-20 -239q-8 -100 -88 -100z" />
    <glyph glyph-name="parenleft" unicode="(" horiz-adv-x="653" 
d="M543 -94q0 -43 -33 -74t-86 -31t-86 49q-248 352 -248 894t248 894q37 52 88 52t84 -31t33 -74t-21 -78q-198 -328 -198 -763t198 -762q21 -33 21 -76z" />
    <glyph glyph-name="parenright" unicode=")" horiz-adv-x="653" 
d="M563 744q0 -542 -248 -894q-35 -49 -87 -49t-84.5 31t-32.5 74t20 76q199 328 199 752t-203 779q-16 37 -16 76t32.5 70t83.5 31t88 -52q248 -352 248 -894z" />
    <glyph glyph-name="asterisk" unicode="*" horiz-adv-x="989" 
d="M893 1194q0 -63 -74 -82l-211 -53l142 -166q26 -29 26 -67t-34 -60t-56 -23q-45 0 -76 50l-114 186l-115 -186q-31 -49 -68 -49t-67 22t-31 60q0 38 25 67l143 166l-213 53q-74 18 -74 82q0 14 6 31q18 59 78 59q25 0 43 -8l203 -84l-16 219q-10 98 85 98t87 -98
l-17 -219l201 84q25 10 43 10q62 0 80 -61q4 -20 4 -31z" />
    <glyph glyph-name="plus" unicode="+" horiz-adv-x="1159" 
d="M1030 574q0 -44 -30.5 -74.5t-75.5 -30.5h-240v-238q0 -45 -30.5 -75.5t-74.5 -30.5t-75 30.5t-31 75.5v238h-237q-45 0 -76 30.5t-31 74.5t30.5 76t76.5 32h237v238q0 45 31 75.5t75 30.5t74.5 -30.5t30.5 -75.5v-238h240q45 0 75.5 -32t30.5 -76z" />
    <glyph glyph-name="comma" unicode="," horiz-adv-x="522" 
d="M393 98q0 -131 -88 -224t-141 -93t-53 51q0 25 47 66t55 92q-106 27 -107 135q0 59 41 99t104 40t102.5 -46t39.5 -120z" />
    <glyph glyph-name="hyphen" unicode="-" 
d="M891 600q0 -43 -31 -73.5t-76 -30.5h-546q-43 0 -74 30.5t-31 73.5t31 74t74 31h546q45 0 76 -31t31 -74z" />
    <glyph glyph-name="hyphen" unicode="&#x2010;" 
d="M891 600q0 -43 -31 -73.5t-76 -30.5h-546q-43 0 -74 30.5t-31 73.5t31 74t74 31h546q45 0 76 -31t31 -74z" />
    <glyph glyph-name="period" unicode="." horiz-adv-x="536" 
d="M408 122.5q0 -59.5 -42 -100t-100 -40.5t-100.5 42t-42.5 100t42 99t100 41t100.5 -41t42.5 -100.5z" />
    <glyph glyph-name="slash" unicode="/" horiz-adv-x="698" 
d="M92 -156q-43 0 -73.5 30t-30.5 73q0 12 4 33l512 1595q20 74 98 74q43 0 73.5 -32t30.5 -60t-4 -48l-509 -1593q-23 -72 -101 -72z" />
    <glyph glyph-name="zero" unicode="0" horiz-adv-x="1146" 
d="M821 514v463q0 154 -64.5 237.5t-183.5 83.5q-248 0 -247 -321v-463q0 -319 247 -319q119 0 183.5 82.5t64.5 236.5zM1055 518q0 -233 -125 -385q-126 -151 -358 -151t-356 150t-124 386v457q0 233 119 379q133 158 363 158t356 -154t125 -383v-457z" />
    <glyph glyph-name="one" unicode="1" horiz-adv-x="1146" 
d="M1057 111q0 -45 -33 -78t-78 -33h-725q-45 0 -77.5 33t-32.5 79t32.5 77.5t77.5 31.5h316v973l-301 -203q-29 -18 -60 -18q-59 0 -92 49q-18 26 -18 72t49 82l469 313q83 55 134.5 4t51.5 -98v-1174h176q45 0 78 -32.5t33 -77.5z" />
    <glyph glyph-name="two" unicode="2" horiz-adv-x="1146" 
d="M1026 112q0 -46 -31.5 -79t-79.5 -33h-696q-111 0 -110 111q0 260 223 458q195 152 305 236q156 131 156 266q1 94 -55 161t-171 66t-175 -36t-95 -57.5t-71 -22.5t-69.5 31.5t-33.5 79.5t41 83q162 135 398 135t360 -141q104 -120 104 -306t-149 -337q-88 -70 -299 -235
q-176 -139 -216 -271h553q47 0 79 -31.5t32 -77.5z" />
    <glyph glyph-name="three" unicode="3" horiz-adv-x="1146" 
d="M997 408q-1 -174 -127 -300t-368 -126t-367 124q-41 42 -41 86t29 72.5t59 28.5t117 -54q86 -55 205 -55t188.5 69t69.5 181q0 227 -277 232q-117 2 -116 98t117 100t194 54t78 152t-55 169q-55 66 -169 66t-198 -52q-31 -20 -60.5 -40.5t-61.5 -20.5t-59.5 26.5
t-27.5 75.5t55 99q133 119 354.5 118.5t337.5 -135.5q94 -109 95 -266q0 -248 -230 -336q258 -83 258 -366z" />
    <glyph glyph-name="four" unicode="4" horiz-adv-x="1146" 
d="M1069 375q0 -45 -30.5 -77t-75.5 -32h-80v-172q0 -47 -33 -79.5t-79 -32.5t-80 33.5t-34 78.5v172h-473q-45 0 -75.5 31t-30.5 67t14 66l432 1012q31 72 107 71q47 0 80.5 -33.5t33.5 -69.5t-10 -60l-373 -867h295v224q0 47 34 79.5t80 32.5t79 -32.5t33 -79.5v-224h80
q45 0 75.5 -31.5t30.5 -76.5z" />
    <glyph glyph-name="five" unicode="5" horiz-adv-x="1146" 
d="M1012 475q0 -211 -122 -353t-362 -140q-203 0 -329 88q-57 39 -57 91t30.5 86t72.5 34t68 -21q102 -72 224 -72q123 0 183 76t60 199q0 264 -219 264q-80 0 -158 -53q-29 -23 -57 -44.5t-66 -21.5t-70 33t-30 84l23 659q2 47 34.5 78t77.5 31h514q47 0 79 -31.5t32 -77.5
t-31.5 -79t-79.5 -33h-415l-15 -389q76 45 181 45q203 0 317.5 -121t114.5 -332z" />
    <glyph glyph-name="six" unicode="6" horiz-adv-x="1146" 
d="M807 451q0 123 -64.5 189.5t-184.5 66.5t-214 -80q-6 -41 -6 -86q0 -174 72 -269q61 -78 159 -77q238 0 238 256zM1040 458q0 -218 -133 -347t-345 -129t-335 158t-123 400q0 243 146 511q110 211 321 424q35 35 85 35t83 -34t33 -79t-37 -82q-211 -211 -313 -447
q80 43 164 43q197 0 317 -112q137 -123 137 -341z" />
    <glyph glyph-name="seven" unicode="7" horiz-adv-x="1146" 
d="M1042 1391q0 -38 -14 -72l-489 -1262q-27 -76 -109 -75q-47 0 -82 33.5t-35 69.5t9 54l450 1133h-577q-45 0 -78 32.5t-33 77.5t33 78t78 33h737q47 0 78.5 -32t31.5 -70z" />
    <glyph glyph-name="eight" unicode="8" horiz-adv-x="1146" 
d="M836 411.5q0 100.5 -84 166.5q-53 43 -197 98q-244 -104 -244 -258q0 -111 70.5 -170.5t190.5 -59.5t192 61.5t72 162zM770 1104q0 98 -54 150.5t-142.5 52.5t-145.5 -53.5t-57 -141.5t57 -139t162 -90q180 92 180 221zM1069 383q0 -170 -133 -286q-133 -115 -363 -115
t-362.5 110.5t-132.5 298.5q0 233 282 381q-213 123 -213 346q0 186 117 288t306 103q189 0 305 -103t116 -288t-211 -313q139 -72 203 -150q86 -102 86 -272z" />
    <glyph glyph-name="nine" unicode="9" horiz-adv-x="1146" 
d="M815 952q0 172 -72 267q-66 79 -171 79t-166.5 -67.5t-61.5 -188.5t63.5 -189.5t183.5 -68.5t216 80q8 35 8 88zM1049 952q0 -459 -469 -934q-37 -36 -85 -36t-82 34.5t-34 79.5t37 82q219 215 313 445q-78 -41 -164 -41q-193 0 -317 110q-137 125 -137 344t131 346
t345 127q214 1 338 -157t124 -400z" />
    <glyph glyph-name="colon" unicode=":" horiz-adv-x="536" 
d="M408 122.5q0 -59.5 -42 -100t-100 -40.5t-100.5 42t-42.5 100t42 99t100 41t100.5 -41t42.5 -100.5zM408 753.5q0 -59.5 -42 -101.5t-101.5 -42t-100.5 42t-41 101.5t42 100.5t100 41t100.5 -41t42.5 -100.5z" />
    <glyph glyph-name="semicolon" unicode=";" horiz-adv-x="528" 
d="M399 98q0 -131 -88 -224t-141 -93t-53 51q0 25 47 66t55 92q-106 27 -106 135q0 59 41.5 99t103.5 40t101.5 -46t39.5 -120zM397 753.5q0 -57.5 -42 -100.5t-100 -43t-100 42t-42 100t42 100.5t99 42.5t100 -42t43 -99.5z" />
    <glyph glyph-name="less" unicode="&#x3c;" horiz-adv-x="919" 
d="M699 49q-42 0 -68 27l-463 430q-39 37 -39 79t39 79l463 432q27 26 69 26t69.5 -29.5t27.5 -69.5t-33 -71l-393 -366l393 -367q33 -31 33 -72t-28 -69.5t-70 -28.5z" />
    <glyph glyph-name="equal" unicode="=" horiz-adv-x="1236" 
d="M1069 366q0 -44 -30.5 -75t-75.5 -31h-689q-45 0 -75.5 31t-30.5 75t30.5 74.5t75.5 30.5h689q45 0 75.5 -30.5t30.5 -74.5zM1069 812q0 -44 -30.5 -74.5t-75.5 -30.5h-689q-45 0 -75.5 30.5t-30.5 74.5t30.5 75t75.5 31h689q45 0 75.5 -31t30.5 -75z" />
    <glyph glyph-name="greater" unicode="&#x3e;" horiz-adv-x="919" 
d="M791 585q0 -42 -39 -79l-463 -430q-27 -27 -68 -27t-68.5 30.5t-27.5 70.5t31 69l393 367l-393 366q-31 27 -31 69t27.5 71.5t68.5 29.5t68 -26l463 -432q39 -37 39 -79z" />
    <glyph glyph-name="question" unicode="?" horiz-adv-x="1009" 
d="M571 122.5q0 -59.5 -42 -100t-100 -40.5t-100 42t-42 100t42 99t100 41t100 -41t42 -100.5zM899 1124q0 -123 -55 -202t-160 -160q-99 -82 -125 -127q-27 -45 -27 -99t-29.5 -82t-76.5 -28q-106 0 -107 109q0 97 33 165t134 150t130 117q50 57 50 148t-62 141t-162 51
q-98 0 -192 -78q-30 -19 -68 -19t-67 31t-29 70q0 63 84 116q133 84 302 84t290 -90q137 -107 137 -297z" />
    <glyph glyph-name="at" unicode="@" horiz-adv-x="1687" 
d="M684 592q0 -106 78 -107q125 0 168 193l43 194q-43 14 -90 15q-83 0 -141 -95q-58 -94 -58 -200zM1554 786q0 -194 -103 -332t-269 -138t-224 128q-92 -125 -233 -125q-105 0 -157 74t-52 185q0 178 103 314t268 136q113 0 209 -33q59 -23 45 -88l-43 -196
q-17 -83 -17 -131q1 -131 103 -131t166 98t63 235q0 209 -123 336q-145 148 -427 148t-445 -213q-139 -182 -139 -429t122 -391q137 -162 408 -161q109 0 209 22t84 23q68 0 67 -66q0 -51 -71 -74q-141 -39 -289 -38q-332 0 -510 196q-166 180 -166 487.5t180 526.5
q203 250 554 250t534 -195q153 -164 153 -418z" />
    <glyph glyph-name="A" unicode="A" horiz-adv-x="1173" 
d="M793 539q-84 274 -209 604q-122 -322 -209 -604h418zM1149 92q0 -49 -37 -79.5t-82 -30.5q-92 0 -112 92q-4 16 -21.5 79.5t-46.5 176.5h-533q-39 -129 -67 -256q-23 -92 -109 -92q-45 0 -80.5 30.5t-35.5 79.5q0 10 40 179t141 484.5t230 633.5q50 125 150 125t151 -125
q262 -647 408 -1266q4 -20 4 -31z" />
    <glyph glyph-name="B" unicode="B" horiz-adv-x="1302" 
d="M952 412v45q0 86 -66.5 137t-185.5 51h-303v-430h326q229 0 229 197zM893 1036v56q0 184 -217 184h-279v-422h209q287 0 287 182zM1186 383q0 -383 -459 -383h-446q-47 0 -82 34t-35 83v1259q0 47 34.5 82t82.5 35h399q229 0 344 -113q102 -98 102 -258v-59
q0 -213 -190 -295q117 -37 183.5 -126t66.5 -202v-57z" />
    <glyph glyph-name="C" unicode="C" horiz-adv-x="1120" 
d="M1051 1313q0 -41 -27 -68q-29 -35 -71 -35q-43 0 -107 45t-170 45q-309 0 -309 -442v-227q0 -233 71.5 -334.5t225.5 -101.5q119 0 186 47t105 47t66 -29t28 -75t-43 -85q-125 -119 -342 -118q-530 0 -531 647v235q0 297 130 472t413 175q211 0 328 -110q47 -47 47 -88z
" />
    <glyph glyph-name="D" unicode="D" horiz-adv-x="1335" 
d="M969 553v381q0 336 -310 336h-262v-1051h262q176 0 250 100q60 78 60 234zM1202 553q0 -553 -528 -553h-393q-47 0 -82 34t-35 83v1259q0 47 34.5 82t82.5 35h393q528 0 528 -557v-383z" />
    <glyph glyph-name="E" unicode="E" horiz-adv-x="1148" 
d="M1075 112q0 -46 -31.5 -79t-78.5 -33h-691q-45 0 -77.5 33t-32.5 78v1269q0 47 32.5 80t77.5 33h662q45 0 78 -33t33 -79t-32 -78.5t-79 -32.5h-539v-416h490q45 0 75.5 -31.5t30.5 -77t-30.5 -77t-75.5 -31.5h-490v-416h568q47 0 78.5 -31.5t31.5 -77.5z" />
    <glyph glyph-name="F" unicode="F" horiz-adv-x="1085" 
d="M1032 1381q0 -46 -32.5 -78.5t-79.5 -32.5h-523v-416h434q45 0 77 -31.5t32 -77t-31.5 -77t-77.5 -31.5h-434v-539q0 -49 -33.5 -82.5t-81.5 -33.5t-83 33.5t-35 82.5v1282q0 47 32.5 80t77.5 33h646q47 0 79.5 -33t32.5 -79z" />
    <glyph glyph-name="G" unicode="G" horiz-adv-x="1271" 
d="M1157 496q0 -229 -113 -361q-129 -154 -378 -153q-532 0 -533 647v235q0 297 130 472t413 175q223 0 336 -112q47 -41 47 -85t-29 -75t-70 -31q-40 0 -108 46t-176 46q-309 0 -309 -440v-229q0 -233 72.5 -335.5t226.5 -102.5q266 0 266 296v86h-189q-45 0 -76.5 32
t-31.5 77t31.5 77t76.5 32h304q49 0 79.5 -33t30.5 -84v-180z" />
    <glyph glyph-name="H" unicode="H" horiz-adv-x="1398" 
d="M1235 98q0 -49 -35 -82.5t-82 -33.5t-82 33.5t-35 82.5v531h-604v-531q0 -49 -33.5 -82.5t-81.5 -33.5t-83 33.5t-35 82.5v1297q0 47 35 81.5t83 34.5t81.5 -34.5t33.5 -81.5v-557h604v557q0 47 35 81.5t82 34.5t82 -34.5t35 -81.5v-1297z" />
    <glyph glyph-name="I" unicode="I" horiz-adv-x="561" 
d="M397 98q0 -49 -33.5 -82.5t-81.5 -33.5t-83 33.5t-35 82.5v1297q0 47 35 81.5t83 34.5t81.5 -34.5t33.5 -81.5v-1297z" />
    <glyph glyph-name="J" unicode="J" horiz-adv-x="923" 
d="M274 201q154 0 215.5 77.5t61.5 262.5v854q0 47 35 81.5t82 34.5t81.5 -34.5t34.5 -81.5v-854q0 -559 -510 -559q-102 0 -174 14q-94 14 -94 106q0 47 28.5 80t80.5 33q112 -14 159 -14z" />
    <glyph glyph-name="K" unicode="K" horiz-adv-x="1193" 
d="M1161 86q0 -39 -37.5 -71.5t-93.5 -32.5t-90 65q-168 317 -391 639l-152 -178v-410q0 -49 -33.5 -82.5t-81.5 -33.5t-83 33.5t-35 82.5v1297q0 47 35 81.5t83 34.5t81.5 -34.5t33.5 -81.5v-576l523 649q33 43 81 43q49 -1 85 -31t36 -79t-26 -78l-389 -455
q235 -330 440 -716q14 -27 14 -66z" />
    <glyph glyph-name="L" unicode="L" horiz-adv-x="1091" 
d="M1069 112q0 -46 -31.5 -79t-79.5 -33h-684q-45 0 -77.5 33t-32.5 78v1284q0 47 35 81.5t83 34.5t81.5 -34.5t33.5 -81.5v-1174h561q47 0 79 -31.5t32 -77.5z" />
    <glyph glyph-name="M" unicode="M" horiz-adv-x="1628" 
d="M1464 1403v-1313q0 -45 -31.5 -76.5t-76.5 -31.5t-77 31.5t-32 76.5v905l-329 -694q-35 -68 -107 -68t-104 68l-328 694v-907q0 -45 -32 -75.5t-76 -30.5t-75.5 30.5t-31.5 75.5v1315q0 45 32.5 76.5t79.5 31.5q80 0 113 -69l426 -883l430 889q31 63 109 63
q47 0 78.5 -31.5t31.5 -76.5z" />
    <glyph glyph-name="N" unicode="N" horiz-adv-x="1372" 
d="M1208 88q0 -45 -31.5 -75.5t-82.5 -30.5q-80 0 -113 57l-602 989v-940q0 -45 -31 -75.5t-76 -30.5t-76.5 30.5t-31.5 75.5v1315q0 45 31.5 76.5t96.5 31.5t101 -61l600 -987v940q0 45 32 76.5t76 31.5t75.5 -31.5t31.5 -76.5v-1315z" />
    <glyph glyph-name="O" unicode="O" horiz-adv-x="1312" 
d="M946 535v423q0 340 -290 340t-289 -340v-423q-1 -342 289 -342t290 342zM1180 535q0 -236 -115 -381q-137 -174 -409.5 -174t-407.5 174q-115 145 -115 381v423q0 236 115 381q135 172 406 172t411 -172q115 -145 115 -381v-423z" />
    <glyph glyph-name="P" unicode="P" horiz-adv-x="1220" 
d="M907 979v96q0 199 -254 199h-256v-490h281q229 0 229 195zM1141 975q0 -184 -120 -294t-335 -110h-289v-473q0 -49 -33.5 -82.5t-81.5 -33.5t-83 33.5t-35 82.5v1278q0 47 34.5 82t82.5 35h389q246 0 368 -131q102 -113 103 -283v-104z" />
    <glyph glyph-name="Q" unicode="Q" horiz-adv-x="1312" 
d="M946 535v423q0 340 -290 340t-289 -340v-423q0 -342 288 -342q88 0 142 26l-39 37q-35 35 -35 75t27.5 67.5t66.5 27.5t74 -31l31 -28q24 74 24 168zM1139 -76q-41 0 -72 31l-106 104q-123 -80 -306 -79q-272 0 -407 174q-115 145 -115 381v423q0 236 115 381
q135 172 406 172t411 -172q115 -145 115 -381v-423q0 -193 -80 -328l110 -101q35 -36 35 -76t-32.5 -73t-73.5 -33z" />
    <glyph glyph-name="R" unicode="R" horiz-adv-x="1257" 
d="M909 1004v86q0 184 -243 184h-269v-463h262q119 0 184.5 53.5t65.5 139.5zM1159 82q0 -36 -38 -68t-85 -32q-70 0 -102 69q-121 255 -303 547h-234v-500q0 -49 -33.5 -82.5t-81.5 -33.5t-83 33.5t-35 82.5v1278q0 47 34.5 82t82.5 35h389q236 1 354 -107t119 -296v-86
q0 -129 -68.5 -225.5t-197.5 -137.5q168 -277 270 -494q12 -29 12 -65z" />
    <glyph glyph-name="S" unicode="S" horiz-adv-x="1191" 
d="M1104 448q0 -220 -148 -344t-386 -122q-240 0 -396 61q-78 31 -78 107q0 45 29 77.5t65 32.5t156 -34t197 -33q328 0 327 237q0 80 -44 123t-154 74q-49 10 -98.5 22.5t-138.5 30.5t-150 53q-183 97 -183 315t146 345q133 119 341 119t347 -52q80 -29 80 -104
q0 -45 -30 -79t-69 -34t-140 28t-161 27q-135 0 -207.5 -58t-72.5 -150t45 -132q68 -62 373 -118q131 -31 194 -72q156 -100 156 -320z" />
    <glyph glyph-name="T" unicode="T" horiz-adv-x="1202" 
d="M1180 1380q0 -47 -33 -79.5t-80 -32.5h-348v-1170q0 -49 -35 -82.5t-83 -33.5t-82 33.5t-34 82.5v1170h-350q-47 0 -79.5 32.5t-32.5 79.5t33.5 80t78.5 33h932q47 0 80 -33t33 -80z" />
    <glyph glyph-name="U" unicode="U" horiz-adv-x="1312" 
d="M1180 485q0 -219 -133 -361t-391.5 -142t-390.5 142t-132 361v910q0 47 35 81.5t82 34.5t81 -34.5t34 -81.5v-901q0 -307 290.5 -307.5t290.5 307.5v901q0 47 34 81.5t82 34.5t83 -34.5t35 -81.5v-910z" />
    <glyph glyph-name="V" unicode="V" horiz-adv-x="1169" 
d="M25 1399q0 49 36.5 80.5t83.5 31.5q84 0 109 -86q194 -661 334 -1056q172 489 342 1063q20 80 100 79q45 0 80 -29.5t35 -74.5q0 -15 -4 -35q-144 -497 -418 -1270q-43 -120 -142 -120t-143 120q-232 646 -407 1260q-6 18 -6 37z" />
    <glyph glyph-name="W" unicode="W" horiz-adv-x="1796" 
d="M1290.5 -18q-114.5 0 -151.5 129q-117 416 -240 936q-89 -385 -242 -936q-35 -129 -147 -129t-154 133q-319 1118 -319 1288q0 49 36 78.5t81 29.5q90 0 108 -90q125 -579 254 -1052q158 592 244 1005q26 137 138 137t138 -137q87 -415 244 -1005q162 585 256 1052
q18 90 109 90q45 0 80.5 -29.5t35.5 -76.5t-114.5 -509t-204.5 -781q-37 -133 -151.5 -133z" />
    <glyph glyph-name="X" unicode="X" horiz-adv-x="1128" 
d="M1120 81q0 -36 -35 -67.5t-89 -31.5t-87 57q-141 253 -344 536q-226 -328 -342 -534q-35 -59 -87 -59t-90 32.5t-38 69.5t19 72q111 196 401 622q-216 318 -348 565q-40 82 7.5 125t100.5 43t88 -61q125 -231 287 -471q152 225 287 471q33 61 88 61t91 -32.5t36 -72.5
t-14 -67q-133 -244 -351 -565q257 -363 402 -622q18 -35 18 -71z" />
    <glyph glyph-name="Y" unicode="Y" horiz-adv-x="1052" 
d="M1053 1413q0 -35 -13 -61q-158 -360 -399 -805v-449q0 -49 -34 -82.5t-82 -33.5t-82.5 33.5t-34.5 82.5v449q-262 489 -396 801q-12 26 -12 62t37 68.5t84 32.5q70 0 100 -69q117 -274 307 -633q200 383 310 635q31 68 87 68t92 -32t36 -67z" />
    <glyph glyph-name="Z" unicode="Z" horiz-adv-x="1101" 
d="M1055 111q0 -45 -32 -78t-77 -33h-790q-47 0 -78 31t-31 81t35 107l657 1051h-581q-45 0 -77 32.5t-32 78.5t32 79t77 33h786q49 0 79 -31.5t30 -77.5t-37 -104l-664 -1057l594 -2q45 0 77 -32.5t32 -77.5z" />
    <glyph glyph-name="bracketleft" unicode="[" horiz-adv-x="626" 
d="M528 -87q0 -46 -31.5 -78t-78.5 -32h-205q-45 0 -78 32t-33 79v1661q0 47 33 80t78 33h205q45 0 77.5 -33t32.5 -79t-31.5 -79t-78.5 -33h-82v-1439h82q47 0 78.5 -33t31.5 -79z" />
    <glyph glyph-name="backslash" unicode="\" horiz-adv-x="774" 
d="M784 -45q0 -31 -29.5 -60.5t-72.5 -29.5q-72 0 -96 65l-584 1538q-6 18 -6 49t29.5 61t72.5 30q72 0 97 -66l583 -1538q6 -18 6 -49z" />
    <glyph glyph-name="bracketright" unicode="]" horiz-adv-x="626" 
d="M524 -86q0 -47 -31.5 -79t-78.5 -32h-205q-45 0 -78 32t-33 78t33 79t78 33h82v1439h-82q-45 0 -78 33t-33 79t33 79t78 33h205q45 0 77.5 -33t32.5 -80v-1661z" />
    <glyph glyph-name="asciicircum" unicode="^" horiz-adv-x="1046" 
d="M952 900q0 -36 -29.5 -65.5t-80.5 -29.5t-78 45l-240 377l-241 -377q-27 -45 -78 -45t-81 29.5t-30 65.5t17 65l305 475q39 61 106.5 61t108.5 -61l305 -475q16 -29 16 -65z" />
    <glyph glyph-name="underscore" unicode="_" horiz-adv-x="972" 
d="M1073 -281q0 -41 -29.5 -69.5t-70.5 -28.5h-973q-41 0 -69.5 28.5t-28.5 69.5t28.5 70t69.5 29h973q41 0 70.5 -29t29.5 -70z" />
    <glyph glyph-name="grave" unicode="`" horiz-adv-x="1085" 
d="M612 1219q-41 0 -67 45l-152 247q-12 20 -12 45q0 51 49 80q20 12 47 13q55 0 84 -54l133 -258q25 -62 -8 -90t-74 -28z" />
    <glyph glyph-name="a" unicode="a" horiz-adv-x="1062" 
d="M674 344v105h-185q-190 0 -190 -140v-14q0 -139 184 -139q191 0 191 188zM993 84q0 -96 -112 -96t-160 96q-97 -96 -281 -96t-275 84t-91 227v14q0 141 99 222t292 81h209v46q0 113 -39 165t-145 52t-197 -50q-27 -14 -59 -14t-59.5 29.5t-27.5 73.5t46 71q115 72 323 72
q208 1 296 -101q89 -102 89 -323v-361q0 -86 55 -122q37 -25 37 -70z" />
    <glyph glyph-name="b" unicode="b" horiz-adv-x="1097" 
d="M762 401v238q0 227 -182 227q-115 0 -191 -88v-530q84 -66 178 -66q195 0 195 219zM184 -12q-115 0 -114 96q0 45 36 70q55 37 56 122v1094q0 47 33.5 80t81 33t80 -33t32.5 -80v-395q100 86 244 86q197 0 282 -121q76 -106 76 -336v-184q0 -432 -389 -432
q-150 0 -262 84q-63 -84 -156 -84z" />
    <glyph glyph-name="c" unicode="c" horiz-adv-x="894" 
d="M524 -12q-211 0 -313 125t-102 336v141q-1 205 109 338t308 133q156 0 262 -60q50 -29 50 -73t-25 -72.5t-55 -28.5t-45 9q-78 36 -172 36t-149.5 -68.5t-55.5 -191.5v-176q0 -260 203 -260q94 0 174 39q16 8 37 8q61 0 81 -57q8 -18 9 -39q0 -57 -74 -90
q-104 -49 -242 -49z" />
    <glyph glyph-name="d" unicode="d" horiz-adv-x="1097" 
d="M526 866q-190 0 -190 -237v-230q0 -217 194 -217q97 0 179 70v536q-78 78 -183 78zM1028 84q0 -96 -110 -96t-160 86q-111 -86 -262 -86q-387 0 -387 426v176q0 471 370 471q133 0 230 -70v379q0 47 33.5 80t80.5 33t80 -33t33 -80v-1094q0 -86 55 -122q37 -25 37 -70z
" />
    <glyph glyph-name="e" unicode="e" horiz-adv-x="1032" 
d="M721 629v30q0 221 -191 222q-195 0 -194 -222v-30h385zM940 539q0 -37 -23.5 -60.5t-58.5 -23.5h-524v-47q0 -231 203 -232q123 0 241 53q14 9 43 9t53.5 -31t24.5 -76t-53 -74q-139 -70 -322 -69q-217 0 -323 131q-92 113 -92 309v193q0 188 98 309q111 131 321 131
t320 -129q92 -115 92 -307v-86z" />
    <glyph glyph-name="f" unicode="f" horiz-adv-x="702" 
d="M737 1397q0 -41 -30.5 -71t-71.5 -30h-60q-100 0 -140 -46t-40 -163v-38h150q41 0 67.5 -27t26.5 -67t-26.5 -67.5t-67.5 -27.5h-150v-758q0 -47 -33.5 -80.5t-81 -33.5t-81 33.5t-33.5 80.5v758h-43q-41 0 -68.5 27.5t-27.5 66.5t27.5 67t68.5 28h43v38q0 412 383 412
h86q41 0 71.5 -30.5t30.5 -71.5z" />
    <glyph glyph-name="g" unicode="g" horiz-adv-x="1077" 
d="M522 866q-186 0 -186 -227v-172q0 -219 184 -219q106 0 191 74v458q-80 86 -189 86zM938 948v-864q0 -211 -102 -332q-115 -127 -332 -127q-172 0 -285 49q-65 29 -65 80t29.5 80t72.5 23q4 1 78 -21t155 -22q221 0 222 258v55q-109 -74 -238 -74q-199 0 -285 119
q-80 106 -79 330v106q0 453 366 453q133 0 238 -86q20 86 110 86q51 0 83 -33t32 -80z" />
    <glyph glyph-name="h" unicode="h" horiz-adv-x="1114" 
d="M975 102q0 -47 -34 -80.5t-81 -33.5t-81 33.5t-34 80.5l3 555q0 190 -170 191q-141 0 -209 -109v-637q0 -47 -34 -80.5t-81 -33.5t-81 33.5t-34 80.5v1268q0 47 34 80t81 33t81 -33t34 -80v-391q100 82 266 82q340 0 340 -381v-578z" />
    <glyph glyph-name="i" unicode="i" horiz-adv-x="507" 
d="M369 102q0 -47 -34 -80.5t-81 -33.5t-81 33.5t-34 80.5v846q0 47 34 80t81 33t81 -33t34 -80v-846zM383 1372q0 -53 -38 -92t-91 -39t-91 39t-38 92t38 91t91 38t91 -38t38 -91z" />
    <glyph glyph-name="j" unicode="j" horiz-adv-x="507" 
d="M369 948v-907q0 -416 -392 -416q-96 0 -96 94q0 86 96 97q86 8 124 54t38 159v919q0 47 34 80t82 33t81 -34t33 -79zM383 1372q0 -53 -38 -92t-91 -39t-91 39t-38 92t38 91t91 38t91 -38t38 -91z" />
    <glyph glyph-name="k" unicode="k" horiz-adv-x="999" 
d="M850 -12q-68 0 -98 67q-95 211 -248 434l-135 -133v-254q0 -47 -34 -80.5t-81 -33.5t-81 33.5t-34 80.5v1268q0 47 34 80t81 33t81 -33t34 -80v-743l405 405q29 29 71 29t71.5 -29.5t29.5 -71.5t-31 -73l-251 -248q186 -264 290 -500q30 -74 -14.5 -112.5t-89.5 -38.5z
" />
    <glyph glyph-name="l" unicode="l" horiz-adv-x="530" 
d="M459 84q0 -96 -113 -96q-63 0 -119 43q-94 74 -94 217v1122q0 47 33 80t80 33t80.5 -33t33.5 -80v-1094q0 -80 64 -122q35 -25 35 -70z" />
    <glyph glyph-name="m" unicode="m" horiz-adv-x="1722" 
d="M654 1061q194 0 276 -125q113 125 317 125q336 0 336 -377v-582q0 -47 -32.5 -80.5t-80 -33.5t-81 33.5t-33.5 80.5v555q0 190 -166 191q-137 0 -203 -109q4 -36 4 -55v-582q0 -47 -33.5 -80.5t-81 -33.5t-81 33.5t-33.5 80.5v555q0 190 -164 191q-137 0 -201 -100v-646
q0 -47 -33.5 -80.5t-80.5 -33.5t-80 33.5t-33 80.5v660q0 78 -64 121q-37 25 -36 69q0 96 109 96t169 -98q112 111 306 111z" />
    <glyph glyph-name="n" unicode="n" horiz-adv-x="1142" 
d="M664 1061q340 0 340 -381v-578q0 -47 -34 -80.5t-81 -33.5t-80 33.5t-33 80.5v555q0 190 -170 191q-141 0 -209 -109v-637q0 -47 -33.5 -80.5t-80.5 -33.5t-80 33.5t-33 80.5v660q0 78 -64 121q-37 25 -36 69q0 96 111 96t169 -102q115 115 314 115z" />
    <glyph glyph-name="o" unicode="o" horiz-adv-x="1067" 
d="M733 418v213q0 223 -198.5 223t-198.5 -223v-213q0 -225 198.5 -225t198.5 225zM961 418q0 -188 -109 -309q-108 -121 -318 -121t-318 120t-107 310v215q1 190 107 309t318 119t319 -120t108 -308v-215z" />
    <glyph glyph-name="p" unicode="p" horiz-adv-x="1097" 
d="M762 420v231q0 215 -195 215q-94 0 -178 -69v-537q78 -78 182 -78q191 0 191 238zM991 459q0 -471 -373 -471q-133 0 -229 69v-319q0 -47 -32.5 -80t-80 -33t-81 33t-33.5 80v1036q0 84 -56 121q-37 25 -36 70q0 96 114 96q66 0 119 -43l15 -14q14 -15 24 -29
q111 86 262 86q387 0 387 -426v-176z" />
    <glyph glyph-name="q" unicode="q" horiz-adv-x="1097" 
d="M336 410q0 -227 184 -228q113 0 189 88v531q-84 66 -179 65q-195 0 -194 -219v-237zM1028 965q0 -45 -37 -70q-55 -37 -55 -121v-1036q0 -47 -33 -80t-80 -33t-80.5 33t-33.5 80v336q-104 -86 -244 -86q-197 0 -281 121q-76 106 -75 335v187q0 430 387 430q156 0 264 -82
q56 82 162 82t106 -96z" />
    <glyph glyph-name="r" unicode="r" horiz-adv-x="833" 
d="M644 1061q182 0 183 -117q0 -45 -29.5 -80t-74.5 -35q-16 -1 -46 7t-79 8q-164 0 -201 -152v-590q0 -47 -33.5 -80.5t-80.5 -33.5t-80 33.5t-33 80.5v660q0 78 -64 121q-37 25 -36 69q0 96 114 97q23 0 35 -5q104 -25 143 -118q100 135 282 135z" />
    <glyph glyph-name="s" unicode="s" horiz-adv-x="919" 
d="M840 306q0 -154 -118 -236t-290 -82t-297 43q-61 20 -61 92q0 41 29 70.5t57 29.5t45 -6q111 -41 225 -41q193 0 193 129q1 86 -129 118q-256 63 -273 73q-141 70 -141 247q0 150 104 234t264 84t275 -43q66 -25 65 -92q0 -39 -27 -69t-55 -30t-42 7q-111 39 -205 38
q-164 0 -164 -116q0 -68 78 -99q21 -10 167 -41t208 -81q92 -75 92 -229z" />
    <glyph glyph-name="t" unicode="t" horiz-adv-x="735" 
d="M717 101q0 -42 -30 -71.5t-73 -29.5h-67q-207 0 -293 119t-86 340v401h-47q-39 0 -66.5 27.5t-27.5 67.5t27.5 67t66.5 27h47v176q0 47 32.5 80.5t80 33.5t81 -33.5t33.5 -80.5v-176h172q41 0 69 -28t28 -67t-28 -66.5t-69 -27.5h-172v-397q0 -143 37 -200.5t143 -57.5
h39q43 0 73 -31t30 -73z" />
    <glyph glyph-name="u" unicode="u" horiz-adv-x="1144" 
d="M1075 84q0 -96 -113 -96t-171 110q-115 -111 -310 -110q-340 0 -340 377v583q0 47 34 80t81 33t81 -33t34 -80l-2 -557q0 -188 170 -188q143 0 209 110v635q0 47 33.5 80t80.5 33t81 -33t34 -80v-674q0 -82 61 -120q37 -25 37 -70z" />
    <glyph glyph-name="v" unicode="v" horiz-adv-x="980" 
d="M35 975q0 31 33.5 58.5t76.5 27.5q76 0 99 -74q116 -370 241 -708q92 243 248 708q25 74 101 74q43 0 77.5 -30.5t34.5 -60.5t-6 -48q-131 -401 -307 -820q-47 -115 -149.5 -114.5t-149.5 114.5q-173 437 -293 824q-6 18 -6 49z" />
    <glyph glyph-name="w" unicode="w" horiz-adv-x="1472" 
d="M1050.5 -12q-108.5 0 -139.5 100q-98 316 -176 612q-35 -137 -174 -612q-31 -100 -141 -100t-141 104q-141 442 -234 848q-2 8 -2 38t33 56.5t74 26.5q82 0 100 -82q72 -309 182 -692q55 233 184 688q27 86 124 86t122 -105q68 -293 178 -669q115 402 183 692
q18 82 100 82q41 0 80 -31t24 -90q-98 -434 -233 -848q-35 -104 -143.5 -104z" />
    <glyph glyph-name="x" unicode="x" horiz-adv-x="933" 
d="M854 958q0 -87 -252 -413q192 -250 270 -393q41 -79 -10.5 -121.5t-107.5 -42.5t-90 66q-63 121 -201 308q-140 -182 -207 -313q-31 -61 -85 -61t-88 29.5t-34 63.5t12 58q80 158 267 396q-254 332 -254 415q0 47 38 79t96 32q58 1 88 -63q66 -132 173 -279
q121 168 176 280q31 61 86 61t89 -29.5t34 -72.5z" />
    <glyph glyph-name="y" unicode="y" horiz-adv-x="948" 
d="M367 25q-336 845 -336 949q0 32 34.5 59.5t79.5 27.5q78 0 99 -76q86 -276 231 -676l221 676q25 76 105 76q45 0 78.5 -30.5t33.5 -64.5t-8 -57l-268 -762q-92 -262 -208 -384t-306 -138q-57 -4 -91 30t-34 81q0 102 104 108q168 8 265 181z" />
    <glyph glyph-name="z" unicode="z" horiz-adv-x="888" 
d="M848 950q0 -47 -33 -92l-473 -657h406q43 0 71.5 -30t28.5 -71t-30 -70.5t-70 -29.5h-603q-39 0 -71.5 31t-32.5 73t22 74l484 672h-373q-41 0 -70.5 29.5t-29.5 70.5t29.5 70t70.5 29h567q107 -1 107 -99z" />
    <glyph glyph-name="braceleft" unicode="{" horiz-adv-x="716" 
d="M614 -90q0 -43 -30.5 -75t-75.5 -32h-19q-131 0 -222 85t-91 239q0 76 39 212t39 189q0 131 -96 131h-11q-37 0 -61.5 25t-24.5 61.5t25 61t61 24.5h11q96 0 96 134q0 53 -39 188t-39 211q0 154 91 239t222 85h19q45 0 75.5 -31t30.5 -74t-28.5 -73.5t-71.5 -30.5h-8
q-98 0 -98 -127q0 -64 38 -188t37 -195q0 -166 -137 -217v-11q137 -55 137 -219q0 -72 -38 -196t-37 -187q0 -127 98 -127h8q43 0 71.5 -29.5t28.5 -72.5z" />
    <glyph glyph-name="bar" unicode="|" horiz-adv-x="528" 
d="M381 -82q0 -47 -35 -82t-83 -35t-82 35t-34 82v1655q0 47 34 82t82 35t83 -35t35 -82v-1655z" />
    <glyph glyph-name="braceright" unicode="}" horiz-adv-x="716" 
d="M655 745.5q0 -34.5 -24.5 -60.5t-61.5 -26h-10q-96 0 -96 -131q0 -53 39 -189t39 -212q1 -154 -91 -239t-225 -85h-16q-47 0 -77 31t-30 75t28 73.5t71 29.5h8q100 0 100 127q0 66 -38 190t-38 193q0 164 138 219v11q-137 51 -138 217q0 69 38 193t38 190q0 127 -100 127
h-8q-43 0 -71 30.5t-28 73.5t30 74t77 31h16q133 0 224 -85t92 -239q0 -76 -39 -211t-39 -188q0 -133 96 -134h10q37 0 61.5 -25.5t24.5 -60z" />
    <glyph glyph-name="asciitilde" unicode="~" horiz-adv-x="1198" 
d="M1077 610q0 -90 -89 -139q-88 -49 -188 -49t-208 49t-162.5 49t-106.5 -36t-92 -36t-75 35t-35 84q0 87 90 139q89 52 189 52t205 -50t161 -50t109 34.5t94 34.5t74.5 -35t33.5 -82z" />
    <glyph glyph-name="Euro Symbol" horiz-adv-x="1216" 
d="M1133 1316q0 -44 -27 -71q-29 -35 -71 -35q-43 0 -107 45t-170 45q-264 0 -301 -313h309q35 0 58.5 -23.5t23.5 -58.5t-23.5 -59.5t-58.5 -24.5h-317v-155h317q35 0 58.5 -24t23.5 -58t-23.5 -58t-58.5 -24h-309q33 -309 288 -309q113 0 183 48t109 48q38 0 65.5 -29
t27.5 -75t-43 -85q-125 -119 -342 -118q-469 0 -522 520h-51q-33 0 -57.5 24.5t-24.5 58.5t24.5 57.5t57.5 23.5h43v155h-43q-35 0 -58.5 24.5t-23.5 59.5t24.5 58.5t57.5 23.5h49q55 524 537 524q217 0 327 -110q48 -41 48 -85z" />
    <glyph glyph-name="Euro Symbol" unicode="&#x20ac;" horiz-adv-x="1216" 
d="M1133 1316q0 -44 -27 -71q-29 -35 -71 -35q-43 0 -107 45t-170 45q-264 0 -301 -313h309q35 0 58.5 -23.5t23.5 -58.5t-23.5 -59.5t-58.5 -24.5h-317v-155h317q35 0 58.5 -24t23.5 -58t-23.5 -58t-58.5 -24h-309q33 -309 288 -309q113 0 183 48t109 48q38 0 65.5 -29
t27.5 -75t-43 -85q-125 -119 -342 -118q-469 0 -522 520h-51q-33 0 -57.5 24.5t-24.5 58.5t24.5 57.5t57.5 23.5h43v155h-43q-35 0 -58.5 24.5t-23.5 59.5t24.5 58.5t57.5 23.5h49q55 524 537 524q217 0 327 -110q48 -41 48 -85z" />
    <glyph glyph-name="nonbreakingspace" unicode="&#xa0;" horiz-adv-x="616" 
 />
    <glyph glyph-name="exclamdown" unicode="&#xa1;" horiz-adv-x="585" 
d="M294 -469q-58 0 -90 37t-30 92l27 825q2 113 93 113t93 -113l27 -825q2 -55 -30 -92t-90 -37zM436 919.5q0 -59.5 -42 -100.5t-100 -41t-100 42t-42 100t42 99.5t100 41.5t100 -41t42 -100.5z" />
    <glyph glyph-name="cent" unicode="&#xa2;" horiz-adv-x="894" 
d="M629 -98q0 -39 -26.5 -65.5t-64.5 -26.5t-66 26.5t-28 65.5v92q-336 43 -335 455v141q0 178 86 307t249 158v92q0 39 28 65.5t66 26.5t64.5 -26.5t26.5 -65.5v-94q92 -13 150 -47q59 -34 59 -78t-25 -73.5t-54 -29.5t-46 9q-84 36 -175 36t-146.5 -69.5t-55.5 -188.5
v-176q0 -260 203 -260q94 0 174 39q16 8 37 8q61 0 81 -57q8 -18 9 -39q0 -93 -211 -131v-94z" />
    <glyph glyph-name="sterling" unicode="&#xa3;" horiz-adv-x="1243" 
d="M1139 111q0 -45 -32 -78t-77 -33h-813q-45 0 -76.5 33t-31.5 78q0 84 137 127q115 78 114 247q0 51 -24 107h-92q-39 0 -68 28.5t-29 68.5t29 67.5t68 27.5h43q-57 154 -58 269q0 190 119 311q131 141 377 141q158 0 285 -43q90 -31 90 -106q0 -47 -30 -79t-75 -32
q-10 -1 -90 19t-162 20q-147 0 -213 -70t-66.5 -167t60.5 -263h291q41 0 68.5 -27.5t27.5 -67.5t-27.5 -68.5t-68.5 -28.5h-244q23 -61 23 -107q0 -158 -107 -266h543q45 0 77 -31.5t32 -76.5z" />
    <glyph glyph-name="currency" unicode="&#xa4;" horiz-adv-x="1216" 
d="M1133 1316q0 -44 -27 -71q-29 -35 -71 -35q-43 0 -107 45t-170 45q-264 0 -301 -313h309q35 0 58.5 -23.5t23.5 -58.5t-23.5 -59.5t-58.5 -24.5h-317v-155h317q35 0 58.5 -24t23.5 -58t-23.5 -58t-58.5 -24h-309q33 -309 288 -309q113 0 183 48t109 48q38 0 65.5 -29
t27.5 -75t-43 -85q-125 -119 -342 -118q-469 0 -522 520h-51q-33 0 -57.5 24.5t-24.5 58.5t24.5 57.5t57.5 23.5h43v155h-43q-35 0 -58.5 24.5t-23.5 59.5t24.5 58.5t57.5 23.5h49q55 524 537 524q217 0 327 -110q48 -41 48 -85z" />
    <glyph glyph-name="yen" unicode="&#xa5;" horiz-adv-x="1052" 
d="M0 1393q0 53 37 85.5t84 32.5q70 0 100 -69q117 -274 307 -633q200 383 310 635q31 68 87 68t92 -32t36 -67t-13 -61q-96 -215 -221 -467h99q39 0 66.5 -28t27.5 -66.5t-28 -65.5t-66 -27h-197q-46 -94 -80 -151v-37h277q39 0 66.5 -27.5t27.5 -66.5t-28 -66.5t-66 -27.5
h-277v-224q0 -49 -34 -82.5t-82 -33.5t-82.5 33.5t-34.5 82.5v224h-277q-39 0 -65.5 27.5t-26.5 66.5t26.5 66.5t65.5 27.5h277v37l-80 151h-197q-39 0 -65.5 27t-26.5 65.5t26.5 66.5t65.5 28h100q-231 455 -231 508z" />
    <glyph glyph-name="brokenbar" unicode="&#xa6;" horiz-adv-x="528" 
d="M381 -80q0 -47 -35 -82t-83 -35t-82 35t-34 82v576q0 49 34 82.5t82 33.5t83 -33.5t35 -82.5v-576zM381 995q0 -47 -35 -80.5t-83 -33.5t-82 33.5t-34 80.5v578q0 47 34 81t82 34t83 -34t35 -81v-578z" />
    <glyph glyph-name="section" unicode="&#xa7;" horiz-adv-x="1112" 
d="M813 520q0 76 -65 119q-49 29 -169 66t-186 61q-86 -55 -86 -164q0 -78 66 -121q43 -27 152 -59t202 -68q86 55 86 166zM1024 545q0 -180 -127 -291q78 -84 78 -213q0 -197 -135 -303q-121 -98 -308 -98q-115 0 -215 22q-147 37 -147 121q0 41 26.5 70.5t69.5 29.5
q4 1 92 -25t162 -26q244 0 244 186q0 92 -77.5 126t-225 78t-213.5 83q-152 91 -152 271t127 290q-78 84 -78 213q1 197 129 299t300 102t290 -40q86 -31 86 -103q0 -41 -26.5 -70.5t-69.5 -29.5l-26 7q-26 7 -90 27t-138 19q-244 0 -244 -188q0 -62 39 -98t107 -57t112 -35
t124 -38q286 -84 286 -329z" />
    <glyph glyph-name="dieresis" unicode="&#xa8;" horiz-adv-x="1085" 
d="M446 1419.5q0 -61.5 -44 -105.5t-105 -44t-105.5 44t-44.5 105.5t44.5 105.5t105.5 44t105 -44t44 -105.5zM938 1419.5q0 -61.5 -44 -105.5t-105.5 -44t-105.5 44t-44 105.5t44 105.5t105.5 44t105.5 -44t44 -105.5z" />
    <glyph glyph-name="copyright" unicode="&#xa9;" horiz-adv-x="1796" 
d="M1139 424q0 -39 -49 -59q-90 -37 -193 -37q-162 0 -248 104q-82 94 -82 262v105q0 155 88 261t242 105q109 0 193 -37q47 -24 47 -60t-21.5 -60.5t-45.5 -24.5q-24 -1 -59 15q-36 16 -111 16t-124 -57.5t-49 -157.5v-105q0 -215 176 -215q80 0 133 25q14 6 38 6
t44.5 -23.5t20.5 -62.5zM1503 746q0 252 -177 430t-428 178t-429 -178q-176 -180 -176 -430t176 -431q178 -178 429 -178q251 1 428 179t177 430zM1663 745.5q0 -315.5 -224 -539.5t-541.5 -224t-541 223t-223.5 540.5t224 541.5t539.5 224t541 -225t225.5 -540.5z" />
    <glyph glyph-name="ordfeminine" unicode="&#xaa;" horiz-adv-x="899" 
d="M565 881v84h-147q-156 0 -156 -111v-12q0 -113 148 -113q155 0 155 152zM829 668q0 -80 -94 -80q-51 0 -83 24t-48 52q-82 -76 -231.5 -76t-225.5 74q-74 63 -73 182v14q0 117 81 183.5t240 66.5h170v35q-1 88 -31 131t-119 43t-159 -39q-24 -12 -50 -12t-49.5 23.5
t-23.5 60.5t39 61q94 59 265 59t245 -82.5t74 -265.5v-297q0 -68 36 -94t37 -63z" />
    <glyph glyph-name="guillemotleft" unicode="&#xab;" horiz-adv-x="1337" 
d="M545 72q-43 0 -76 32l-373 385q-30 31 -30 71t30 75l373 387q31 33 75 33t74.5 -31t30.5 -73t-28 -74l-304 -314l304 -313q31 -31 31 -75t-32 -73.5t-75 -29.5zM1243 175q0 -44 -31.5 -73.5t-74.5 -29.5t-76 32l-373 385q-31 31 -31 71t31 75l373 387q31 33 75 33
t74.5 -30t30.5 -73t-29 -75l-303 -314l303 -313q31 -31 31 -75z" />
    <glyph glyph-name="logicalnot" unicode="&#xac;" 
 />
    <glyph glyph-name="minus" unicode="&#xad;" horiz-adv-x="1163" 
d="M1038 576q0 -44 -30.5 -74.5t-75.5 -30.5h-701q-45 0 -75.5 30.5t-30.5 74.5t30.5 75t75.5 31h701q45 0 75.5 -31t30.5 -75z" />
    <glyph glyph-name="minus" unicode="&#x2212;" horiz-adv-x="1163" 
d="M1038 576q0 -44 -30.5 -74.5t-75.5 -30.5h-701q-45 0 -75.5 30.5t-30.5 74.5t30.5 75t75.5 31h701q45 0 75.5 -31t30.5 -75z" />
    <glyph glyph-name="registered" unicode="&#xae;" horiz-adv-x="1796" 
d="M1026 887v39q0 90 -111 90h-133v-219h125q119 0 119 90zM1184 877q0 -147 -140 -195l121 -233q9 -14 9 -41t-24 -50.5t-64 -23.5t-66 51l-135 274h-103v-245q0 -33 -22.5 -55.5t-55 -22.5t-56 22.5t-23.5 55.5v663q0 33 23.5 56.5t56.5 23.5h219q135 1 197 -63t63 -156
v-61zM1503 746q0 252 -177 430t-428 178t-429 -178q-176 -180 -176 -430t176 -431q178 -178 429 -178q251 1 428 179t177 430zM1663 745.5q0 -315.5 -224 -539.5t-541.5 -224t-541 223t-223.5 540.5t224 541.5t539.5 224t541 -225t225.5 -540.5z" />
    <glyph glyph-name="macron" unicode="&#xaf;" horiz-adv-x="1085" 
d="M831 1385q0 -40 -27.5 -68.5t-68.5 -28.5h-385q-39 0 -67.5 29t-28.5 69t28.5 68.5t67.5 28.5h385q39 0 67.5 -29t28.5 -69z" />
    <glyph glyph-name="macron" unicode="&#x2c9;" horiz-adv-x="1085" 
d="M831 1385q0 -40 -27.5 -68.5t-68.5 -28.5h-385q-39 0 -67.5 29t-28.5 69t28.5 68.5t67.5 28.5h385q39 0 67.5 -29t28.5 -69z" />
    <glyph glyph-name="degree" unicode="&#xb0;" horiz-adv-x="854" 
d="M556.5 1285q-55.5 54 -130.5 54q-76 0 -130 -54t-54 -131t54 -131t130 -54t131 55t55 131t-55.5 130zM427 1511q149 -1 254 -105t105 -252t-105 -253q-105 -104 -253 -104t-256 104q-104 105 -104 253t104 253q106 104 255 104z" />
    <glyph glyph-name="plusminus" unicode="&#xb1;" 
 />
    <glyph glyph-name="twosuperior" unicode="&#xb2;" horiz-adv-x="921" 
d="M727 693q0 -28 -20.5 -47t-47.5 -19h-397q-68 0 -67 65q0 158 174 301q93 73 145 119q74 63 74 131q0 129 -127 129q-72 0 -103.5 -20.5t-49.5 -33.5t-42 -13q-23 0 -42 19t-19 49t22 48q97 78 233 78t202 -77t65 -174q0 -97 -50 -160t-144 -131q-93 -67 -111 -87
q-57 -51 -76 -110h313q29 0 48.5 -19.5t19.5 -47.5z" />
    <glyph glyph-name="threesuperior" unicode="&#xb3;" horiz-adv-x="921" 
d="M723 864q0 -100 -74 -174t-213 -74t-213 74q-25 25 -24 51q0 59 59 60q12 0 58 -31t118 -31q147 0 148 140q0 129 -156 129q-70 0 -70 58t72 62q152 4 152 119q0 127 -129 127q-61 0 -115 -32t-62 -31q-57 0 -57 59q0 33 33 60q78 70 206 70t189 -74q61 -73 62 -160
q0 -141 -123 -193q139 -53 139 -209z" />
    <glyph glyph-name="acute" unicode="&#xb4;" horiz-adv-x="1085" 
d="M473 1219q-41 0 -66.5 22.5t-25.5 46.5t10 49l133 258q29 53 84 54q25 0 47 -13q49 -29 50 -80q-1 -25 -13 -45l-151 -247q-27 -45 -68 -45z" />
    <glyph glyph-name="mu" unicode="&#xb5;" horiz-adv-x="1144" 
d="M1075 84q0 -96 -113 -96t-171 110q-115 -111 -310 -110q-61 0 -112 12l2 -276q0 -47 -34 -81t-81 -34t-81 33.5t-34 81.5v1224q0 47 34 80t81 33t81 -33t34 -80l-2 -557q0 -188 170 -188q143 0 209 110v635q0 47 33.5 80t80.5 33t81 -33t34 -80v-674q0 -82 61 -120
q37 -25 37 -70z" />
    <glyph glyph-name="mu" unicode="&#x3bc;" horiz-adv-x="1144" 
d="M1075 84q0 -96 -113 -96t-171 110q-115 -111 -310 -110q-61 0 -112 12l2 -276q0 -47 -34 -81t-81 -34t-81 33.5t-34 81.5v1224q0 47 34 80t81 33t81 -33t34 -80l-2 -557q0 -188 170 -188q143 0 209 110v635q0 47 33.5 80t80.5 33t81 -33t34 -80v-674q0 -82 61 -120
q37 -25 37 -70z" />
    <glyph glyph-name="paragraph" unicode="&#xb6;" horiz-adv-x="1413" 
d="M1335 1400q0 -42 -29.5 -72t-70.5 -30h-66v-1513q0 -47 -33.5 -82t-81.5 -35t-82 35t-34 82v1513h-199v-1513q0 -47 -34.5 -82t-82.5 -35t-82 35t-34 82v938q-160 10 -266 123q-106 114 -107 270q0 156 117 270t278 115h707q41 0 70.5 -29.5t29.5 -71.5z" />
    <glyph glyph-name="periodcentered" unicode="&#xb7;" horiz-adv-x="536" 
d="M408 604.5q0 -59.5 -42 -100.5t-100 -41t-100.5 42t-42.5 100t42 99t100 41t100.5 -40.5t42.5 -100z" />
    <glyph glyph-name="periodcentered" unicode="&#x2219;" horiz-adv-x="536" 
d="M408 604.5q0 -59.5 -42 -100.5t-100 -41t-100.5 42t-42.5 100t42 99t100 41t100.5 -40.5t42.5 -100z" />
    <glyph glyph-name="cedilla" unicode="&#xb8;" horiz-adv-x="1085" 
d="M737 -244q0 -78 -63.5 -124t-193.5 -46t-132 62q0 45 98 45q129 0 129 71q0 57 -102 68q-76 8 -74 66l9 108h110v-84q219 0 219 -166z" />
    <glyph glyph-name="onesuperior" unicode="&#xb9;" horiz-adv-x="921" 
d="M680 760q65 0 65 -67t-65 -66h-416q-27 0 -46 19.5t-19 46t19.5 47t45.5 20.5h178v549l-166 -113q-16 -12 -40 -12t-44 20t-20 50t31 53l268 178q14 14 41 14q70 0 70 -69v-670h98z" />
    <glyph glyph-name="ordmasculine" unicode="&#xba;" horiz-adv-x="917" 
d="M618 942v174q0 182 -159.5 182t-159.5 -182v-174q0 -182 159.5 -182t159.5 182zM809 942q0 -156 -87 -255t-264 -99t-263 100t-86 254v176q0 154 88 253t261 99t262 -97t89 -255v-176z" />
    <glyph glyph-name="guillemotright" unicode="&#xbb;" horiz-adv-x="1337" 
d="M680 560q0 -40 -31 -71l-373 -385q-34 -32 -76 -32t-74 29.5t-32 73.5t31 75l303 313l-303 314q-29 33 -29 75t31 72.5t75 30.5t74 -33l373 -387q31 -35 31 -75zM1272 562q0 -42 -31 -73l-375 -385q-30 -32 -74 -32t-75 29.5t-31 73.5t31 75l303 313l-303 314
q-29 33 -29 75t31 71.5t74 29.5t73 -31l375 -387q31 -31 31 -73z" />
    <glyph glyph-name="onequarter" unicode="&#xbc;" horiz-adv-x="921" 
d="M707 -229.5q0 -61.5 -60 -61.5h-39v-88q0 -63 -63 -63q-25 0 -43.5 18t-18.5 45v88h-247q-59 0 -60 62q0 6 6 30l232 537q16 41 59 41q63 0 64 -68q0 -12 -7 -24l-196 -455h149v115q0 27 18.5 45t43.5 18q63 0 63 -63v-115h39q60 0 60 -61.5zM846 524q0 -25 -18.5 -43
t-43.5 -18h-647q-25 0 -43 18.5t-18 42.5q0 61 61 62h647q62 -1 62 -62zM719 751.5q0 -61.5 -62 -61.5h-385q-25 0 -43 18.5t-18 43.5q0 61 61 61h166v510l-155 -106q-16 -10 -33 -11q-61 0 -62 64q0 33 27 51l250 166q14 12 37 12q66 0 65 -65v-621h90q62 0 62 -61.5z" />
    <glyph glyph-name="onehalf" unicode="&#xbd;" horiz-adv-x="921" 
d="M713 -370q0 -26 -18.5 -44t-43.5 -18h-370q-61 0 -62 63q0 143 160 277q35 27 68.5 54.5t68.5 55.5q68 57 68 121q0 119 -119 119q-55 0 -100 -25q-2 -2 -12.5 -8t-27.5 -17t-38 -11t-40.5 18t-19.5 45t23 45q88 72 215 72t190 -76q57 -63 58 -162q0 -131 -170 -258
q-101 -74 -113 -86q-55 -51 -70 -102h291q25 0 43.5 -18.5t18.5 -44.5zM846 524q0 -25 -18.5 -43t-43.5 -18h-647q-25 0 -43 18.5t-18 42.5q0 61 61 62h647q62 -1 62 -62zM719 751.5q0 -61.5 -62 -61.5h-385q-25 0 -43 18.5t-18 43.5q0 61 61 61h166v510l-155 -106
q-16 -10 -33 -11q-61 0 -62 64q0 33 27 51l250 166q14 12 37 12q66 0 65 -65v-621h90q62 0 62 -61.5z" />
    <glyph glyph-name="threequarters" unicode="&#xbe;" horiz-adv-x="921" 
d="M709 -229.5q0 -61.5 -60 -61.5h-39v-88q0 -63 -62 -63t-63 63v88h-247q-59 0 -60 62q0 14 8 30l230 537q16 41 59 41q63 0 64 -66q0 -14 -7 -26l-196 -455h149v115q1 63 63 63t62 -63v-115h39q60 0 60 -61.5zM846 524q0 -25 -18.5 -43t-43.5 -18h-647q-25 0 -43 18.5
t-18 42.5q0 61 61 62h647q62 -1 62 -62zM715 911q0 -93 -68 -161q-69 -68 -197 -68t-198 68q-23 23 -23 47q0 55 56 55q6 0 61 -31q35 -27 100 -26q137 0 138 129q0 119 -144 120q-66 4 -65.5 55.5t67.5 55.5q139 4 140 111q0 119 -119 118q-55 0 -107 -30t-57 -29
q-53 0 -53 55q0 27 30 56q66 63 187 63t186 -74q51 -57 51 -143q0 -125 -114 -178q129 -48 129 -193z" />
    <glyph glyph-name="questiondown" unicode="&#xbf;" horiz-adv-x="942" 
d="M924 -268q0 -63 -84 -117q-126 -82 -300 -82t-292 90q-137 104 -137 295q0 123 55 201q56 78 156 158t128 128t28 101t29.5 81.5t76.5 28.5q106 0 106 -108q0 -98 -32 -165t-110 -131q-127 -104 -157 -136q-47 -59 -47 -148q0 -90 62 -140t158 -50q95 0 196 78
q24 16 64 16t70 -30.5t30 -69.5zM723 919.5q0 -59.5 -42 -100.5t-100 -41t-100.5 42t-42.5 100t42 99.5t100 41.5t100.5 -41t42.5 -100.5z" />
    <glyph glyph-name="Agrave" unicode="&#xc0;" horiz-adv-x="1173" 
d="M793 539q-87 285 -209 604q-122 -322 -209 -604h418zM1149 92q0 -49 -37 -80t-82 -30q-92 0 -112 92q-4 16 -22 80t-46 176h-533q-39 -129 -67 -256q-23 -92 -109 -92q-45 0 -81 30t-35 80q0 10 40 179t141 485t230 633q50 125 150 125t151 -125q262 -647 408 -1266
q4 -20 4 -31zM766 1700q0 -24 -26 -48q-26 -22 -66 -22t-68 45l-151 248q-12 20 -13 45q0 51 50 80q20 12 47 12q55 0 84 -53l133 -258q10 -25 10 -49z" />
    <glyph glyph-name="Aacute" unicode="&#xc1;" horiz-adv-x="1173" 
d="M793 539q-87 285 -209 604q-122 -322 -209 -604h418zM1149 92q0 -49 -37 -80t-82 -30q-92 0 -112 92q-4 16 -22 80t-46 176h-533q-39 -129 -67 -256q-23 -92 -109 -92q-45 0 -81 30t-35 80q0 10 40 179t141 485t230 633q50 125 150 125t151 -125q262 -647 408 -1266
q4 -20 4 -31zM502 1630q-40 0 -74 29q-33 29 -8 90l133 258q29 53 84 53q25 0 47 -12q49 -29 49 -80q0 -25 -12 -45l-152 -248q-27 -45 -67 -45z" />
    <glyph glyph-name="Acircumflex" unicode="&#xc2;" horiz-adv-x="1173" 
d="M793 539q-87 285 -209 604q-122 -322 -209 -604h418zM1149 92q0 -49 -37 -80t-82 -30q-92 0 -112 92q-4 16 -22 80t-46 176h-533q-39 -129 -67 -256q-23 -92 -109 -92q-45 0 -81 30t-35 80q0 10 40 179t141 485t230 633q50 125 150 125t151 -125q262 -647 408 -1266
q4 -20 4 -31zM920 1734q0 -36 -26 -62t-56 -27q-31 0 -60 22l-192 164l-193 -162q-23 -20 -55 -20q-32 1 -60 27q-26 26 -26 62t33 66l233 215q27 25 68 25t67 -27l234 -217q33 -30 33 -66z" />
    <glyph glyph-name="Atilde" unicode="&#xc3;" horiz-adv-x="1173" 
d="M793 539q-87 285 -209 604q-122 -322 -209 -604h418zM1149 92q0 -49 -37 -80t-82 -30q-92 0 -112 92q-4 16 -22 80t-46 176h-533q-39 -129 -67 -256q-23 -92 -109 -92q-45 0 -81 30t-35 80q0 10 40 179t141 485t230 633q50 125 150 125t151 -125q262 -647 408 -1266
q4 -20 4 -31zM462 1776q-44 0 -77 -33t-65 -33t-56 29q-25 29 -26 69q-2 76 65 123q59 45 133 45t154 -43q86 -41 125 -41t73 32t66 32q34 0 58 -28t26 -68q2 -74 -64 -121q-128 -90 -287 -6q-81 43 -125 43z" />
    <glyph glyph-name="Adieresis" unicode="&#xc4;" horiz-adv-x="1173" 
d="M793 539q-87 285 -209 604q-122 -322 -209 -604h418zM1149 92q0 -49 -37 -80t-82 -30q-92 0 -112 92q-4 16 -22 80t-46 176h-533q-39 -129 -67 -256q-23 -92 -109 -92q-45 0 -81 30t-35 80q0 10 40 179t141 485t230 633q50 125 150 125t151 -125q262 -647 408 -1266
q4 -20 4 -31zM487 1831q0 -61 -44 -105t-105 -45q-61 0 -106 44q-44 43 -44 105t44 106t106 44t105 -44q44 -44 44 -105zM979 1831q0 -61 -44 -105q-43 -44 -105 -45q-62 0 -106 44q-44 43 -44 105t44 106t105 44t105 -44t45 -105z" />
    <glyph glyph-name="Aring" unicode="&#xc5;" horiz-adv-x="1173" 
d="M793 539q-87 285 -209 604q-122 -322 -209 -604h418zM1149 92q0 -49 -37 -80t-82 -30q-92 0 -112 92q-4 16 -22 80t-46 176h-533q-39 -129 -67 -256q-23 -92 -109 -92q-45 0 -81 30t-35 80q0 10 40 179t141 485t230 633q50 125 150 125t151 -125q262 -647 408 -1266
q4 -20 4 -31zM715 1832q0 54 -38 92t-90 38t-91 -38t-39 -92t38 -92t91 -38t91 38t38 92zM585 1589q-99 0 -170 71t-71 171t70 170t171 71q101 0 171 -70t71 -170t-71 -171q-72 -72 -171 -72z" />
    <glyph glyph-name="AE" unicode="&#xc6;" horiz-adv-x="1814" 
d="M877 537v696q-153 -258 -388 -696h388zM1743 111q0 -45 -33 -78t-80 -33h-643q-45 0 -77.5 33t-32.5 78v217h-492q-55 -109 -135 -271q-34 -69 -94 -69t-95.5 32.5t-35.5 70.5t14 65q260 537 639 1198q45 78 96 108.5t137 30.5h693q45 0 77.5 -33t32.5 -79t-31.5 -78.5
t-78.5 -32.5h-494v-416h442q45 0 77 -31.5t32 -77t-32 -77t-77 -31.5h-442v-416h520q47 0 80 -32.5t33 -77.5z" />
    <glyph glyph-name="Ccedilla" unicode="&#xc7;" horiz-adv-x="1120" 
d="M1051 1313q0 -41 -27 -68q-29 -35 -71 -35q-43 0 -107 45t-170 45q-309 0 -309 -442v-227q0 -233 71.5 -334.5t225.5 -101.5q119 0 186 47t105 47t66 -29t28 -75t-43 -85q-113 -106 -310 -118v-68q217 0 217 -164q0 -78 -64.5 -124t-192.5 -46t-130 60q0 41 97 45
q129 2 129 73q0 57 -103 68q-76 6 -74 63l9 97q-451 49 -451 643v235q0 297 130 472t413 175q211 0 328 -110q47 -47 47 -88z" />
    <glyph glyph-name="Egrave" unicode="&#xc8;" horiz-adv-x="1148" 
d="M965 221q47 1 79 -31t31 -78q0 -46 -32 -79t-78 -33h-691q-46 0 -78 33t-32 78v1269q0 47 33 80t77 33h662q45 0 78 -33t33 -79q0 -47 -32 -79t-79 -32h-539v-416h490q45 0 76 -32t31 -77t-32 -77q-30 -32 -75 -31h-490v-416h568zM776 1700q0 -24 -26 -48
q-26 -22 -66 -22q-41 0 -68 45l-151 248q-12 20 -12 45q0 51 49 80q20 12 47 12q55 0 84 -53l133 -258q10 -25 10 -49z" />
    <glyph glyph-name="Eacute" unicode="&#xc9;" horiz-adv-x="1148" 
d="M965 221q47 1 79 -31t31 -78q0 -46 -32 -79t-78 -33h-691q-46 0 -78 33t-32 78v1269q0 47 33 80t77 33h662q45 0 78 -33t33 -79q0 -47 -32 -79t-79 -32h-539v-416h490q45 0 76 -32t31 -77t-32 -77q-30 -32 -75 -31h-490v-416h568zM555 1630q-41 0 -74 29t-8 90l133 258
q29 53 84 53q25 0 47 -12q49 -29 49 -80q0 -25 -12 -45l-151 -248q-27 -45 -68 -45z" />
    <glyph glyph-name="Ecircumflex" unicode="&#xca;" horiz-adv-x="1148" 
d="M965 221q47 1 79 -31t31 -78q0 -46 -32 -79t-78 -33h-691q-46 0 -78 33t-32 78v1269q0 47 33 80t77 33h662q45 0 78 -33t33 -79q0 -47 -32 -79t-79 -32h-539v-416h490q45 0 76 -32t31 -77t-32 -77q-30 -32 -75 -31h-490v-416h568zM942 1734q0 -36 -26 -62t-56 -27
q-31 0 -59 22l-193 164l-192 -162q-23 -20 -56 -20q-34 1 -60 27t-26 62t33 66l234 215q27 25 67 25t68 -27l233 -217q33 -30 33 -66z" />
    <glyph glyph-name="Edieresis" unicode="&#xcb;" horiz-adv-x="1148" 
d="M504 1830.5q0 -61.5 -44 -105.5t-105.5 -44t-105.5 44t-44 105.5t44 105.5t105.5 44t105.5 -44t44 -105.5zM995 1830.5q0 -61.5 -43 -105.5t-105 -44t-105.5 44t-43.5 105.5t43 105.5t105 44t105.5 -44t43.5 -105.5zM1075 112q0 -46 -31.5 -79t-78.5 -33h-691
q-45 0 -77.5 33t-32.5 78v1269q0 47 32.5 80t77.5 33h662q45 0 78 -33t33 -79t-32 -78.5t-79 -32.5h-539v-416h490q45 0 75.5 -31.5t30.5 -77t-30.5 -77t-75.5 -31.5h-490v-416h568q47 0 78.5 -31.5t31.5 -77.5z" />
    <glyph glyph-name="Igrave" unicode="&#xcc;" horiz-adv-x="561" 
d="M397 98q1 -49 -33 -83q-34 -33 -82 -33t-83 34t-35 82v1297q0 47 35 82t83 35t82 -36q34 -34 33 -81v-1297zM360 1630q-40 0 -67 45l-152 248q-12 20 -12 45q0 51 49 80q20 12 47 12q55 0 84 -53l133 -258q25 -63 -15 -97q-27 -22 -67 -22z" />
    <glyph glyph-name="Iacute" unicode="&#xcd;" horiz-adv-x="561" 
d="M397 98q1 -49 -33 -83q-34 -33 -82 -33t-83 34t-35 82v1297q0 47 35 82t83 35t82 -36q34 -34 33 -81v-1297zM200 1630q-40 0 -73 29t-8 90l133 258q29 53 84 53q25 0 47 -12q49 -29 49 -80q0 -25 -12 -45l-152 -248q-28 -45 -68 -45z" />
    <glyph glyph-name="Icircumflex" unicode="&#xce;" horiz-adv-x="561" 
d="M397 98q1 -49 -33 -83q-34 -33 -82 -33t-83 34t-35 82v1297q0 47 35 82t83 35t82 -36q34 -34 33 -81v-1297zM536 1645q-31 0 -59 22l-192 164l-193 -162q-24 -20 -56 -20q-32 1 -59 27t-27 62t34 66l233 215q27 25 68 25t67 -27l234 -217q32 -30 32 -66t-25 -63
q-26 -26 -57 -26z" />
    <glyph glyph-name="Idieresis" unicode="&#xcf;" horiz-adv-x="561" 
d="M397 98q1 -49 -33 -83q-34 -33 -82 -33t-83 34t-35 82v1297q0 47 35 82t83 35t82 -36q34 -34 33 -81v-1297zM188 1831q0 -61 -44 -105t-105 -45q-61 0 -106 44q-44 43 -44 105t44 106q43 44 105 44t106 -44t44 -105zM680 1831q0 -61 -44 -105t-106 -45q-62 0 -105 44
q-44 43 -44 105t44 106t105 44q62 0 106 -44t44 -105z" />
    <glyph glyph-name="Eth" unicode="&#xd0;" horiz-adv-x="1372" 
d="M1006 553v381q0 158 -60 235q-74 100 -250 101h-262v-430h158q45 0 76.5 -31t31.5 -76t-31.5 -76.5t-76.5 -31.5h-158v-406h262q176 0 250 100q60 78 60 234zM1239 553q0 -553 -526 -553h-396q-47 0 -81.5 34t-34.5 83v508h-68q-45 0 -76.5 31.5t-31.5 76.5t31.5 76
t76.5 31h68v536q0 47 34.5 82t81.5 35h396q526 0 526 -555v-385z" />
    <glyph glyph-name="Ntilde" unicode="&#xd1;" horiz-adv-x="1372" 
d="M1208 88q0 -45 -32 -76t-82 -30q-80 0 -113 57l-602 989v-940q0 -45 -31 -76q-31 -30 -76 -30q-44 0 -76 30t-32 76v1315q0 45 32 77t83 31q78 0 114 -61l600 -987v940q0 45 32 77t76 32t76 -32t31 -77v-1315zM554 1776q-44 0 -77 -33t-65 -33t-56 29q-25 29 -26 69
q-2 76 65 123q59 45 133 45t154 -43q86 -41 125 -41t73 32t66 32t58 -28q24 -28 26 -68q2 -74 -63 -121q-129 -91 -288 -6q-81 43 -125 43z" />
    <glyph glyph-name="Ograve" unicode="&#xd2;" horiz-adv-x="1312" 
d="M946 535v423q0 340 -290 340t-289 -340v-423q-1 -342 289 -342t290 342zM1180 535q0 -236 -115 -381q-137 -174 -409 -174t-408 174q-115 145 -115 381v423q0 236 115 381q135 172 406 172t411 -172q115 -145 115 -381v-423zM750 1630q-40 0 -68 45l-152 248
q-12 20 -12 45q0 51 49 80q20 12 47 12q55 0 84 -53l133 -258q25 -63 -15 -97q-26 -22 -66 -22z" />
    <glyph glyph-name="Oacute" unicode="&#xd3;" horiz-adv-x="1312" 
d="M946 535v423q0 340 -290 340t-289 -340v-423q-1 -342 289 -342t290 342zM1180 535q0 -236 -115 -381q-137 -174 -409 -174t-408 174q-115 145 -115 381v423q0 236 115 381q135 172 406 172t411 -172q115 -145 115 -381v-423zM563 1630q-41 0 -67 23t-25 47q0 24 10 49
l133 258q29 53 84 53q25 0 47 -12q49 -29 50 -80q-1 -25 -13 -45l-151 -248q-27 -45 -68 -45z" />
    <glyph glyph-name="Ocircumflex" unicode="&#xd4;" horiz-adv-x="1312" 
d="M946 535v423q0 340 -290 340t-289 -340v-423q-1 -342 289 -342t290 342zM1180 535q0 -236 -115 -381q-137 -174 -409 -174t-408 174q-115 145 -115 381v423q0 236 115 381q135 172 406 172t411 -172q115 -145 115 -381v-423zM907 1645q-31 0 -59 22l-193 164l-192 -162
q-23 -20 -55 -20q-32 1 -60 27q-26 26 -26 62t32 66l234 215q28 25 68 25t67 -27l233 -217q33 -30 33 -66t-25 -63q-26 -26 -57 -26z" />
    <glyph glyph-name="Otilde" unicode="&#xd5;" horiz-adv-x="1312" 
d="M946 535v423q0 340 -290 340t-289 -340v-423q-1 -342 289 -342t290 342zM1180 535q0 -236 -115 -381q-137 -174 -409 -174t-408 174q-115 145 -115 381v423q0 236 115 381q135 172 406 172t411 -172q115 -145 115 -381v-423zM521 1776q-44 0 -77 -33q-32 -33 -64 -33
t-56 29t-27 69q-2 76 65 123q59 45 133 45t154 -43q86 -41 125 -41t73 32q35 32 67 32t56 -28t27 -68q2 -74 -63 -121q-129 -91 -288 -6q-81 43 -125 43z" />
    <glyph glyph-name="Odieresis" unicode="&#xd6;" horiz-adv-x="1312" 
d="M946 535v423q0 340 -290 340t-289 -340v-423q-1 -342 289 -342t290 342zM1180 535q0 -236 -115 -381q-137 -174 -409 -174t-408 174q-115 145 -115 381v423q0 236 115 381q135 172 406 172t411 -172q115 -145 115 -381v-423zM551 1831q0 -61 -44 -105q-43 -44 -105 -45
q-62 0 -106 44q-44 43 -44 105t44 106t105 44t105 -44t45 -105zM1042 1831q0 -61 -44 -105t-105 -45q-61 0 -106 44q-44 43 -44 105t44 106q43 44 105 44t106 -44t44 -105z" />
    <glyph glyph-name="multiply" unicode="&#xd7;" horiz-adv-x="956" 
d="M831 824q0 -44 -30 -74l-174 -175l174 -172q31 -31 31 -75t-31 -74.5t-75 -30.5t-75 31l-174 172l-172 -172q-31 -31 -75 -31t-74.5 31t-30.5 75t31 74l172 172l-172 175q-31 30 -31 74t30.5 75t74.5 31t75 -31l172 -174l174 174q31 31 75 31t74.5 -31t30.5 -75z" />
    <glyph glyph-name="Oslash" unicode="&#xd8;" horiz-adv-x="1312" 
d="M946 535v423q0 115 -33 193l-411 -926q59 -33 153 -32q291 0 291 342zM367 535q0 -119 32 -193l412 924q-63 33 -156 32q-289 0 -288 -340v-423zM1180 535q0 -236 -115 -381q-137 -174 -410 -174q-131 0 -243 47l-27 -62q-18 -41 -55 -41t-58.5 21t-21.5 43t6 35l37 81
q-160 147 -160 431v423q0 236 115 381q135 172 407 172q133 0 246 -47l27 62q18 41 63 41q70 0 70 -70q0 -14 -6 -29l-35 -82q160 -145 160 -428v-423z" />
    <glyph glyph-name="Ugrave" unicode="&#xd9;" horiz-adv-x="1312" 
d="M1180 485q0 -219 -133 -361t-391 -142t-391 142q-132 142 -132 361v910q0 47 35 82t82 35t81 -36q34 -34 34 -81v-901q0 -307 290 -308q291 0 291 308v901q0 47 34 82t82 35t83 -36q35 -34 35 -81v-910zM815 1700q1 -24 -25 -48q-26 -22 -67 -22t-68 45l-151 248
q-12 20 -12 45q0 51 49 80q20 12 47 12q55 0 84 -53l133 -258q10 -25 10 -49z" />
    <glyph glyph-name="Uacute" unicode="&#xda;" horiz-adv-x="1312" 
d="M1180 485q0 -219 -133 -361t-391 -142t-391 142q-132 142 -132 361v910q0 47 35 82t82 35t81 -36q34 -34 34 -81v-901q0 -307 290 -308q291 0 291 308v901q0 47 34 82t82 35t83 -36q35 -34 35 -81v-910zM606 1630q-40 0 -66 23t-26 47t10 49l133 258q29 53 84 53
q25 0 47 -12q49 -29 50 -80q-1 -25 -13 -45l-151 -248q-27 -45 -68 -45z" />
    <glyph glyph-name="Ucircumflex" unicode="&#xdb;" horiz-adv-x="1312" 
d="M1180 485q0 -219 -133 -361t-391 -142t-391 142q-132 142 -132 361v910q0 47 35 82t82 35t81 -36q34 -34 34 -81v-901q0 -307 290 -308q291 0 291 308v901q0 47 34 82t82 35t83 -36q35 -34 35 -81v-910zM985 1734q1 -36 -25 -62t-57 -27q-31 0 -59 22l-193 164l-192 -162
q-23 -20 -56 -20q-33 1 -59 27t-27 62q0 36 33 66l234 215q28 25 68 25t67 -27l233 -217q33 -30 33 -66z" />
    <glyph glyph-name="Udieresis" unicode="&#xdc;" horiz-adv-x="1312" 
d="M1180 485q0 -219 -133 -361t-391 -142t-391 142q-132 142 -132 361v910q0 47 35 82t82 35t81 -36q34 -34 34 -81v-901q0 -307 290 -308q291 0 291 308v901q0 47 34 82t82 35t83 -36q35 -34 35 -81v-910zM555 1831q0 -61 -44 -105t-105 -45q-61 0 -106 44q-44 43 -44 105
t44 106t106 44t105 -44q44 -44 44 -105zM1047 1831q-1 -61 -45 -105t-105 -45q-61 0 -105 44q-44 43 -44 105t44 106t105 44t105 -44t45 -105z" />
    <glyph glyph-name="Yacute" unicode="&#xdd;" horiz-adv-x="1052" 
d="M1053 1413q0 -35 -13 -61q-158 -360 -399 -805v-449q0 -49 -34 -83q-34 -33 -82 -33t-83 34t-34 82v449q-262 489 -396 801q-12 26 -12 62t37 69t84 32q70 0 100 -69q117 -274 307 -633q196 374 310 635q31 68 87 68t92 -32t36 -67zM460 1630q-40 0 -73 29t-8 90l133 258
q29 53 84 53q25 0 47 -12q49 -29 49 -80q0 -25 -12 -45l-152 -248q-28 -45 -68 -45z" />
    <glyph glyph-name="Thorn" unicode="&#xde;" horiz-adv-x="1220" 
d="M907 637v98q0 197 -254 197h-256v-490h281q229 0 229 195zM1141 633q0 -184 -120 -294t-335 -110h-289v-473q0 -47 -33.5 -81.5t-81.5 -34.5t-83 34.5t-35 81.5v1739q0 49 35 83t83 34t81.5 -34t33.5 -83v-344h273q246 0 368 -131q102 -109 103 -281v-106z" />
    <glyph glyph-name="germandbls" unicode="&#xdf;" horiz-adv-x="1189" 
d="M1081 397q0 -201 -151 -309q-133 -96 -346 -96h-66q-41 0 -70.5 28.5t-29.5 69.5t29.5 70.5t70.5 29.5h47q289 0 289 238q0 260 -313 260h-31q-37 0 -62.5 26.5t-25.5 63.5t25.5 62.5t62.5 25.5h41q83 0 153 53t70 159t-54 156t-130 50q-221 0 -221 -307v-1098
q0 -47 -34 -79.5t-81 -32.5t-81 32.5t-34 79.5v1098q0 254 123 385q124 131 318 131t302.5 -104.5t108.5 -274.5q0 -250 -227 -319q317 -79 317 -398z" />
    <glyph glyph-name="agrave" unicode="&#xe0;" horiz-adv-x="1064" 
d="M674 344v105h-185q-190 0 -190 -140v-14q0 -139 184 -139q191 0 191 188zM993 84q0 -96 -114 -96q-84 0 -140 66q-10 13 -18 30q-97 -96 -281 -96t-275 84t-91 227v14q0 141 99 223t292 80h209v46q0 112 -39 164t-145 52t-197 -49q-27 -14 -59 -14t-59 30q-28 29 -28 73
t46 71q115 72 323 72q208 1 296 -101q89 -102 89 -323v-361q0 -86 55 -122q37 -25 37 -70zM346 1556q0 51 49 80q20 12 47 13q55 0 84 -54l133 -258q25 -62 -15 -96q-26 -23 -66 -23t-68 46l-152 247q-12 20 -12 45z" />
    <glyph glyph-name="aacute" unicode="&#xe1;" horiz-adv-x="1064" 
d="M674 344v105h-185q-190 0 -190 -140v-14q0 -139 184 -139q191 0 191 188zM993 84q0 -96 -114 -96q-84 0 -140 66q-10 13 -18 30q-97 -96 -281 -96t-275 84t-91 227v14q0 141 99 223t292 80h209v46q0 112 -39 164t-145 52t-197 -49q-27 -14 -59 -14t-59 30q-28 29 -28 73
t46 71q115 72 323 72q208 1 296 -101q89 -102 89 -323v-361q0 -86 55 -122q37 -25 37 -70zM454 1219q-40 1 -66 23t-26 46t11 49l133 258q29 53 84 54q25 0 47 -13q49 -29 49 -80q0 -25 -12 -45l-152 -247q-28 -45 -68 -45z" />
    <glyph glyph-name="acircumflex" unicode="&#xe2;" horiz-adv-x="1064" 
d="M674 344v105h-185q-190 0 -190 -140v-14q0 -139 184 -139q191 0 191 188zM993 84q0 -96 -114 -96q-84 0 -140 66q-10 13 -18 30q-97 -96 -281 -96t-275 84t-91 227v14q0 141 99 223t292 80h209v46q0 112 -39 164t-145 52t-197 -49q-27 -14 -59 -14t-59 30q-28 29 -28 73
t46 71q115 72 323 72q208 1 296 -101q89 -102 89 -323v-361q0 -86 55 -122q37 -25 37 -70zM846 1322q0 -36 -26 -62t-56 -27q-31 0 -59 22l-193 164l-193 -162q-23 -20 -55 -20t-60 27q-26 26 -26 62t33 67l233 215q27 24 68 24t68 -26l233 -217q33 -31 33 -67z" />
    <glyph glyph-name="atilde" unicode="&#xe3;" horiz-adv-x="1064" 
d="M674 344v105h-185q-190 0 -190 -140v-14q0 -139 184 -139q191 0 191 188zM993 84q0 -96 -114 -96q-84 0 -140 66q-10 13 -18 30q-97 -96 -281 -96t-275 84t-91 227v14q0 141 99 223t292 80h209v46q0 112 -39 164t-145 52t-197 -49q-27 -14 -59 -14t-59 30q-28 29 -28 73
t46 71q115 72 323 72q208 1 296 -101q89 -102 89 -323v-361q0 -86 55 -122q37 -25 37 -70zM380 1364q-44 0 -77 -33t-65 -33t-56 29q-25 29 -26 70q-2 76 65 123q59 45 133 45t154 -43q86 -41 125 -41t74 30q33 33 65 33t58 -28q24 -28 26 -68q2 -74 -63 -121
q-129 -91 -288 -6q-81 43 -125 43z" />
    <glyph glyph-name="adieresis" unicode="&#xe4;" horiz-adv-x="1064" 
d="M674 344v105h-185q-190 0 -190 -140v-14q0 -139 184 -139q191 0 191 188zM993 84q0 -96 -114 -96q-84 0 -140 66q-10 13 -18 30q-97 -96 -281 -96t-275 84t-91 227v14q0 141 99 223t292 80h209v46q0 112 -39 164t-145 52t-197 -49q-27 -14 -59 -14t-59 30q-28 29 -28 73
t46 71q115 72 323 72q208 1 296 -101q89 -102 89 -323v-361q0 -86 55 -122q37 -25 37 -70zM422 1419q0 -61 -44 -105t-106 -44t-105 44q-44 44 -44 105t44 105t105 45q61 0 106 -44q44 -45 44 -106zM913 1419q0 -61 -44 -105t-105 -44t-106 44q-44 44 -44 105t44 105t106 45
q62 -1 105 -45q44 -44 44 -105z" />
    <glyph glyph-name="aring" unicode="&#xe5;" horiz-adv-x="1064" 
d="M674 344v105h-185q-190 0 -190 -140v-14q0 -139 184 -139q191 0 191 188zM993 84q0 -96 -114 -96q-84 0 -140 66q-10 13 -18 30q-97 -96 -281 -96t-275 84t-91 227v14q0 141 99 223t292 80h209v46q0 112 -39 164t-145 52t-197 -49q-27 -14 -59 -14t-59 30q-28 29 -28 73
t46 71q115 72 323 72q208 1 296 -101q89 -102 89 -323v-361q0 -86 55 -122q37 -25 37 -70zM631 1420q0 54 -38 92t-90 38t-91 -38t-39 -92t38 -92t91 -38t91 38t38 92zM331 1248q-71 70 -71 171q0 100 70 170t171 71q101 0 171 -70t71 -170t-71 -171t-171 -71t-170 70z" />
    <glyph glyph-name="ae" unicode="&#xe6;" horiz-adv-x="1597" 
d="M674 344v109h-185q-190 0 -190 -140v-18q0 -139 184 -139q191 0 191 188zM1286 659q0 221 -190 222q-195 0 -195 -222v-41h385v41zM1507 625v-88q0 -37 -24.5 -60.5t-57.5 -23.5h-524v-45q0 -231 201 -232q119 0 241 53q14 9 43 9t54.5 -30t25.5 -76t-53 -75
q-139 -69 -339 -69t-304 137q-94 -137 -334 -137q-180 0 -271 84t-91 227v16q0 141 99 222t292 81h209v44q0 113 -39 165t-145 52t-197 -50q-27 -14 -59 -14t-59.5 29.5t-27.5 73.5t46 71q115 72 321 72t293 -111q100 111 299 111q199 -1 300 -121t101 -315z" />
    <glyph glyph-name="ccedilla" unicode="&#xe7;" horiz-adv-x="894" 
d="M840 122q0 -46 -54 -75q-90 -47 -223 -57v-68q219 0 219 -164q0 -78 -64 -124t-194 -46t-131 60q0 47 99 47q129 0 129 72q0 57 -103 67q-78 6 -74 66l7 92q-171 20 -257 142t-85 315v141q-1 205 109 338t308 133q156 0 262 -60q50 -29 50 -73t-25 -72.5t-55 -28.5t-45 9
q-78 36 -172 36t-149.5 -68.5t-55.5 -191.5v-176q0 -258 203 -258q90 0 174 39q14 8 44 8t56.5 -28.5t26.5 -74.5z" />
    <glyph glyph-name="egrave" unicode="&#xe8;" horiz-adv-x="1032" 
d="M721 629v30q0 221 -191 222q-195 0 -194 -222v-30h385zM940 539q0 -37 -24 -61t-58 -23h-524v-47q0 -231 203 -232q123 0 241 53q14 9 43 9t53 -31t25 -76q0 -45 -53 -74q-139 -70 -322 -69q-217 0 -323 131q-92 113 -92 309v193q0 188 98 309q111 131 321 131t320 -129
q92 -115 92 -307v-86zM698 1288q0 -24 -26 -48q-26 -22 -66 -22q-41 0 -67 46l-152 247q-12 20 -12 45q0 51 49 80q20 12 47 13q55 0 84 -54l133 -258q10 -25 10 -49z" />
    <glyph glyph-name="eacute" unicode="&#xe9;" horiz-adv-x="1032" 
d="M721 629v30q0 221 -191 222q-195 0 -194 -222v-30h385zM940 539q0 -37 -24 -61t-58 -23h-524v-47q0 -231 203 -232q123 0 241 53q14 9 43 9t53 -31t25 -76q0 -45 -53 -74q-139 -70 -322 -69q-217 0 -323 131q-92 113 -92 309v193q0 188 98 309q111 131 321 131t320 -129
q92 -115 92 -307v-86zM462 1219q-40 0 -73 28t-8 90l133 258q29 53 84 54q25 0 47 -13q49 -29 49 -80q0 -25 -12 -45l-152 -247q-28 -45 -68 -45z" />
    <glyph glyph-name="ecircumflex" unicode="&#xea;" horiz-adv-x="1032" 
d="M721 629v30q0 221 -191 222q-195 0 -194 -222v-30h385zM940 539q0 -37 -24 -61t-58 -23h-524v-47q0 -231 203 -232q123 0 241 53q14 9 43 9t53 -31t25 -76q0 -45 -53 -74q-139 -70 -322 -69q-217 0 -323 131q-92 113 -92 309v193q0 188 98 309q111 131 321 131t320 -129
q92 -115 92 -307v-86zM858 1322q0 -36 -26 -62t-56 -27q-31 0 -59 22l-193 164l-192 -162q-23 -20 -56 -20q-34 0 -60 27q-26 26 -26 62t33 67l234 215q27 24 67 24t68 -26l233 -217q33 -31 33 -67z" />
    <glyph glyph-name="edieresis" unicode="&#xeb;" horiz-adv-x="1032" 
d="M721 629v30q0 221 -191 222q-195 0 -194 -222v-30h385zM940 539q0 -37 -24 -61t-58 -23h-524v-47q0 -231 203 -232q123 0 241 53q14 9 43 9t53 -31t25 -76q0 -45 -53 -74q-139 -70 -322 -69q-217 0 -323 131q-92 113 -92 309v193q0 188 98 309q111 131 321 131t320 -129
q92 -115 92 -307v-86zM428 1419q0 -61 -44 -105t-105 -44t-106 44q-44 44 -44 105t44 105q43 44 105 45q62 -1 106 -45t44 -105zM920 1419q0 -61 -44 -105t-106 -44t-105 44q-44 44 -44 105t44 105t105 45q61 0 106 -44q44 -45 44 -106z" />
    <glyph glyph-name="igrave" unicode="&#xec;" horiz-adv-x="507" 
d="M369 102q0 -46 -34 -80t-81 -34t-81 34t-34 80v846q0 47 34 80t81 33t81 -33t34 -80v-846zM424 1288q0 -24 -26 -48q-26 -22 -66 -22t-68 46l-151 247q-12 20 -13 45q0 51 50 80q20 12 47 13q55 0 84 -54l133 -258q10 -25 10 -49z" />
    <glyph glyph-name="iacute" unicode="&#xed;" horiz-adv-x="507" 
d="M369 102q0 -46 -34 -80t-81 -34t-81 34t-34 80v846q0 47 34 80t81 33t81 -33t34 -80v-846zM184 1219q-40 1 -66 23t-26 46t10 49l134 258q29 53 83 54q25 0 48 -13q49 -29 49 -80q-1 -25 -13 -45l-151 -247q-27 -45 -68 -45z" />
    <glyph glyph-name="icircumflex" unicode="&#xee;" horiz-adv-x="507" 
d="M369 102q0 -46 -34 -80t-81 -34t-81 34t-34 80v846q0 47 34 80t81 33t81 -33t34 -80v-846zM590 1322q0 -36 -26 -62t-56 -27q-31 0 -59 22l-193 164l-193 -162q-23 -20 -55 -20t-60 27q-26 26 -26 62t33 67l233 215q27 24 68 24t68 -26l233 -217q33 -31 33 -67z" />
    <glyph glyph-name="idieresis" unicode="&#xef;" horiz-adv-x="507" 
d="M369 102q0 -46 -34 -80t-81 -34t-81 34t-34 80v846q0 47 34 80t81 33t81 -33t34 -80v-846zM162 1419q0 -61 -44 -105t-106 -44t-105 44q-44 44 -44 105t44 105t105 45q61 0 106 -44q44 -45 44 -106zM653 1419q0 -61 -44 -105t-105 -44t-106 44q-44 44 -44 105t44 105
t106 45q62 -1 105 -45q44 -44 44 -105z" />
    <glyph glyph-name="eth" unicode="&#xf0;" horiz-adv-x="1150" 
d="M821 494q0 88 -14 147q-93 68 -205 68t-192 -68q-80 -69 -80 -185t64 -189.5t178 -73.5q114 -1 182 73t67 228zM1049 494q-1 -248 -137 -380t-343 -132t-338 131q-129 131 -129 341t138 329t313 118q90 0 166 -39q-66 140 -193 271l-137 -103q-23 -18 -55 -18t-57 25.5
t-25 62.5t35 65l110 84q-10 8 -25.5 20.5t-37.5 28.5q-49 32 -49 86t33.5 87.5t80.5 33.5t187 -114l131 100q20 18 54 18t59.5 -25.5t25.5 -63.5t-35 -66l-108 -82q336 -348 336 -778z" />
    <glyph glyph-name="ntilde" unicode="&#xf1;" horiz-adv-x="1142" 
d="M664 1061q340 0 340 -381v-578q0 -46 -34 -80t-81 -34t-80 34t-33 80v555q0 190 -170 191q-141 0 -209 -109v-637q1 -46 -33 -80t-81 -34t-80 34t-33 80v660q0 78 -64 121q-37 25 -36 69q0 96 111 96t169 -102q115 115 314 115zM452 1364q-44 0 -77 -33t-65 -33t-56 29
t-27 70q-2 76 66 123q59 45 133 45t154 -43q86 -41 124 -41t74 30q33 33 66 33q34 0 58 -28t26 -68q2 -74 -64 -121q-128 -90 -288 -6q-80 43 -124 43z" />
    <glyph glyph-name="ograve" unicode="&#xf2;" horiz-adv-x="1067" 
d="M733 418v213q-1 223 -199 223t-198 -223v-213q0 -225 198 -225t199 225zM961 418q0 -188 -109 -309q-108 -121 -318 -121t-318 120t-107 310v215q1 190 107 309t318 119t319 -120t108 -308v-215zM385 1556q0 51 49 80q20 12 47 13q55 0 84 -54l133 -258q25 -62 -15 -96
q-27 -23 -67 -23t-67 46l-152 247q-12 20 -12 45z" />
    <glyph glyph-name="oacute" unicode="&#xf3;" horiz-adv-x="1067" 
d="M733 418v213q-1 223 -199 223t-198 -223v-213q0 -225 198 -225t199 225zM961 418q0 -188 -109 -309q-108 -121 -318 -121t-318 120t-107 310v215q1 190 107 309t318 119t319 -120t108 -308v-215zM460 1219q-40 0 -73 28t-8 90l133 258q29 53 84 54q25 0 47 -13
q49 -29 49 -80q0 -25 -12 -45l-152 -247q-28 -45 -68 -45z" />
    <glyph glyph-name="ocircumflex" unicode="&#xf4;" horiz-adv-x="1067" 
d="M733 418v213q-1 223 -199 223t-198 -223v-213q0 -225 198 -225t199 225zM961 418q0 -188 -109 -309q-108 -121 -318 -121t-318 120t-107 310v215q1 190 107 309t318 119t319 -120t108 -308v-215zM786 1233q-31 0 -59 22l-192 164l-193 -162q-24 -20 -56 -20t-59 27
q-27 26 -27 62t33 67l234 215q27 24 68 24t67 -26l234 -217q32 -31 32 -67t-26 -62t-56 -27z" />
    <glyph glyph-name="otilde" unicode="&#xf5;" horiz-adv-x="1067" 
d="M733 418v213q-1 223 -199 223t-198 -223v-213q0 -225 198 -225t199 225zM961 418q0 -188 -109 -309q-108 -121 -318 -121t-318 120t-107 310v215q1 190 107 309t318 119t319 -120t108 -308v-215zM415 1364q-44 0 -77 -33t-65 -33q-33 0 -57 29t-26 70q-2 76 66 123
q58 45 132 45t155 -43q86 -41 125 -41q38 -1 72 31t67 32t57 -28t27 -68q2 -74 -64 -121q-128 -90 -287 -6q-81 43 -125 43z" />
    <glyph glyph-name="odieresis" unicode="&#xf6;" horiz-adv-x="1067" 
d="M733 418v213q-1 223 -199 223t-198 -223v-213q0 -225 198 -225t199 225zM961 418q0 -188 -109 -309q-108 -121 -318 -121t-318 120t-107 310v215q1 190 107 309t318 119t319 -120t108 -308v-215zM438 1419q0 -61 -44 -105t-105 -44t-106 44q-44 44 -44 105t44 105
q43 44 105 45q62 -1 106 -45t44 -105zM930 1419q0 -61 -44 -105t-106 -44t-105 44q-44 44 -44 105t44 105t105 45q61 0 106 -44q44 -45 44 -106z" />
    <glyph glyph-name="divide" unicode="&#xf7;" horiz-adv-x="1234" 
d="M760 186.5q0 -59.5 -42 -100.5t-100 -41t-100.5 42t-42.5 100t42 99.5t100 41.5t100.5 -41t42.5 -100.5zM1063 581q0 -44 -31 -75t-76 -31h-677q-45 0 -76 31t-31 75t30.5 74.5t76.5 30.5h677q45 0 76 -30.5t31 -74.5zM760 974.5q0 -59.5 -42 -100t-100 -40.5t-100.5 42
t-42.5 100t41 100t100.5 42t101.5 -42t42 -101.5z" />
    <glyph glyph-name="oslash" unicode="&#xf8;" horiz-adv-x="1067" 
d="M535 854q-199 0 -199 -223v-213q0 -76 29 -137l249 561q-35 12 -79 12zM733 418v213q0 76 -28 137l-252 -563q37 -12 82 -12q198 0 198 225zM961 418q0 -188 -109 -309t-317 -121q-94 0 -168 24l-33 -73q-14 -33 -51 -33q-55 0 -56 55q0 10 4 23l35 77q-158 115 -157 357
v215q1 190 107 309t319 119q94 0 167 -25l33 76q20 49 74 27q35 -16 35 -52q0 -14 -6 -22l-37 -78q160 -115 160 -354v-215z" />
    <glyph glyph-name="ugrave" unicode="&#xf9;" horiz-adv-x="1144" 
d="M1075 84q0 -96 -113 -96t-171 110q-115 -111 -310 -110q-340 0 -340 377v583q0 47 34 80t81 33t81 -33t34 -80l-2 -557q0 -188 170 -188q143 0 209 110v635q0 47 33 80q34 33 81 33t81 -33t34 -80v-674q0 -82 61 -120q37 -25 37 -70zM717 1288q0 -24 -26 -48
q-27 -22 -67 -22t-67 46l-151 247q-12 20 -13 45q0 51 49 80q20 12 47 13q55 0 84 -54l134 -258q10 -25 10 -49z" />
    <glyph glyph-name="uacute" unicode="&#xfa;" horiz-adv-x="1144" 
d="M1075 84q0 -96 -113 -96t-171 110q-115 -111 -310 -110q-340 0 -340 377v583q0 47 34 80t81 33t81 -33t34 -80l-2 -557q0 -188 170 -188q143 0 209 110v635q0 47 33 80q34 33 81 33t81 -33t34 -80v-674q0 -82 61 -120q37 -25 37 -70zM485 1219q-41 1 -67 23t-25 46
q0 24 10 49l134 258q29 53 84 54q25 0 47 -13q49 -29 49 -80q0 -25 -12 -45l-152 -247q-27 -45 -68 -45z" />
    <glyph glyph-name="ucircumflex" unicode="&#xfb;" horiz-adv-x="1144" 
d="M1075 84q0 -96 -113 -96t-171 110q-115 -111 -310 -110q-340 0 -340 377v583q0 47 34 80t81 33t81 -33t34 -80l-2 -557q0 -188 170 -188q143 0 209 110v635q0 47 33 80q34 33 81 33t81 -33t34 -80v-674q0 -82 61 -120q37 -25 37 -70zM891 1322q1 -36 -25 -62t-57 -27
q-31 0 -59 22l-193 164l-192 -162q-23 -20 -56 -20t-59 27q-26 26 -27 62q0 36 33 67l233 215q27 24 68 24t68 -26l233 -217q33 -31 33 -67z" />
    <glyph glyph-name="udieresis" unicode="&#xfc;" horiz-adv-x="1144" 
d="M1075 84q0 -96 -113 -96t-171 110q-115 -111 -310 -110q-340 0 -340 377v583q0 47 34 80t81 33t81 -33t34 -80l-2 -557q0 -188 170 -188q143 0 209 110v635q0 47 33 80q34 33 81 33t81 -33t34 -80v-674q0 -82 61 -120q37 -25 37 -70zM467 1419q0 -61 -44 -105
q-43 -44 -105 -44t-106 44t-44 105t44 105t105 45q61 0 106 -44q44 -45 44 -106zM958 1419q0 -61 -44 -105t-105 -44t-106 44q-44 44 -44 105t44 105q43 44 105 45q62 -1 106 -45t44 -105z" />
    <glyph glyph-name="yacute" unicode="&#xfd;" horiz-adv-x="952" 
d="M367 25q-336 845 -336 949q0 32 35 60t79 27q78 0 99 -76q99 -315 231 -676l221 676q25 76 105 76q45 0 79 -30q52 -46 25 -122l-268 -762q-92 -262 -208 -384t-306 -138q-57 -4 -91 30t-34 81q0 102 104 108q168 8 265 181zM432 1219q-40 1 -66 23t-26 46t10 49l133 258
q29 53 84 54q25 0 47 -13q49 -29 50 -80q-1 -25 -13 -45l-151 -247q-27 -45 -68 -45z" />
    <glyph glyph-name="thorn" unicode="&#xfe;" horiz-adv-x="1069" 
d="M733 416v231q0 217 -194 217q-88 0 -179 -71v-537q78 -78 183 -78q190 0 190 238zM961 457q0 -473 -373 -473q-127 0 -228 71v-319q0 -47 -33.5 -81t-80.5 -34t-81 34t-34 81v1663q0 47 34 80.5t81 33.5t80.5 -33.5t33.5 -80.5v-400q102 59 213 60q387 0 388 -428v-174z
" />
    <glyph glyph-name="ydieresis" unicode="&#xff;" horiz-adv-x="948" 
d="M367 25q-336 845 -336 949q0 32 35 60t79 27q78 0 99 -76q99 -315 231 -676l221 676q25 76 105 76q45 0 79 -30q52 -46 25 -122l-268 -762q-92 -262 -208 -384t-306 -138q-57 -4 -91 30t-34 81q0 102 104 108q168 8 265 181zM379 1419q0 -61 -44 -105q-43 -44 -105 -44
t-106 44t-44 105t44 105t105 45q61 0 106 -44q44 -45 44 -106zM870 1419q0 -61 -44 -105t-105 -44t-106 44q-44 44 -44 105t44 105q43 44 105 45q62 -1 106 -45t44 -105z" />
    <glyph glyph-name="dotlessi" unicode="&#x131;" horiz-adv-x="507" 
d="M369 102q0 -47 -34 -80.5t-81 -33.5t-81 33.5t-34 80.5v846q0 47 34 80t81 33t81 -33t34 -80v-846z" />
    <glyph glyph-name="Lslash" unicode="&#x141;" horiz-adv-x="1189" 
d="M1169 111q0 -45 -32.5 -78t-79.5 -33h-682q-45 0 -78 33t-33 78v426l-78 -50q-29 -16 -59 -16q-59 0 -90 47q-17 29 -17 72t50 78l194 127v600q0 47 34 81.5t82 34.5t82 -34.5t34 -81.5v-451l116 76q27 18 67 18t70.5 -30.5t30.5 -82.5t-49 -85l-235 -152v-467h561
q47 0 79.5 -32.5t32.5 -77.5z" />
    <glyph glyph-name="lslash" unicode="&#x142;" horiz-adv-x="778" 
d="M764 923q0 -50 -47 -81l-236 -154v-403q0 -84 62 -123q37 -25 37 -70q0 -96 -113 -96q-66 0 -121 43q-88 70 -92 217l-2 285l-78 -54q-27 -16 -55 -16q-59 0 -92 49q-17 29 -17 72t47 74l195 127v585q0 47 33.5 80t81 33t81 -33t33.5 -80v-438l121 80q28 16 64 16
t67 -31.5t31 -81.5z" />
    <glyph glyph-name="OE" unicode="&#x152;" horiz-adv-x="1929" 
d="M946 535v423q0 340 -290 340t-289 -340v-423q-1 -342 289 -342t290 342zM1858 111q0 -45 -33 -78t-80 -33h-688q-68 0 -99 59q-121 -78 -303 -77q-272 0 -407 172q-115 145 -115 381v423q0 236 115 381q135 172 407 172q182 0 303 -77q31 59 99 59h661q45 0 78 -33
t33 -79t-32 -78.5t-79 -32.5h-538v-416h487q45 0 77 -31.5t32 -77t-32 -77t-77 -31.5h-487v-416h565q47 0 80 -32.5t33 -77.5z" />
    <glyph glyph-name="oe" unicode="&#x153;" horiz-adv-x="1656" 
d="M733 418v213q0 223 -198.5 223t-198.5 -223v-213q0 -225 198.5 -225t198.5 225zM1346 629v30q0 221 -193 222q-195 0 -195 -222v-30h388zM1565 539q0 -37 -23.5 -60.5t-58.5 -23.5h-525v-47q0 -231 201 -232q125 0 244 53q14 9 43 9t53.5 -31t24.5 -76t-54 -74
q-138 -69 -330 -69t-296 127q-104 -127 -312 -127t-316 120t-107 310v215q1 190 107 309t315 119t317 -129q104 129 310 129t315 -129q92 -115 92 -307v-86z" />
    <glyph glyph-name="Scaron" unicode="&#x160;" horiz-adv-x="1191" 
d="M1104 448q0 -220 -148 -344t-386 -122q-240 0 -396 61q-78 31 -78 107q0 46 29 78t65 32t156 -34t197 -33q328 0 327 237q0 80 -44 123t-154 74q-48 10 -98 22t-139 31t-150 53q-183 97 -183 315t146 345q133 119 341 119t347 -52q80 -29 80 -104q0 -45 -30 -79t-69 -34
t-140 28t-161 27q-136 0 -208 -58t-72 -150t45 -132q68 -62 373 -118q131 -31 194 -72q156 -100 156 -320zM924 1953q0 -36 -33 -67l-234 -215q-29 -25 -69 -25t-66 27l-233 217q-33 31 -33 67q0 37 26 63t56 26t59 -23l193 -163l192 161q23 21 56 21q34 0 60 -26t26 -63z
" />
    <glyph glyph-name="scaron" unicode="&#x161;" horiz-adv-x="919" 
d="M840 306q0 -154 -118 -236t-290 -82t-297 43q-61 20 -61 92q0 41 35 78t96 16q111 -41 225 -41q193 0 193 129q1 86 -129 118q-258 64 -273 73q-141 70 -141 247q0 150 104 234t264 84t275 -43q66 -25 65 -92q0 -39 -26 -69t-56 -30q-28 0 -42 7q-111 39 -205 38
q-164 0 -164 -116q0 -68 78 -99q21 -10 167 -41t208 -81q92 -75 92 -229zM707 1630q33 0 59 -26t27 -63q0 -36 -33 -66l-234 -215q-28 -25 -68 -25t-67 27l-233 217q-33 31 -33 67t26 62q52 54 115 4l193 -164l192 162q23 20 56 20z" />
    <glyph glyph-name="Ydieresis" unicode="&#x178;" horiz-adv-x="1052" 
d="M418 1830.5q0 -61.5 -43 -105.5t-105 -44t-105.5 44t-43.5 105.5t43 105.5t105 44t105.5 -44t43.5 -105.5zM911 1830.5q0 -61.5 -44 -105.5t-105.5 -44t-105.5 44t-44 105.5t44 105.5t105.5 44t105.5 -44t44 -105.5zM1047 1401q0 -14 -11 -49q-158 -356 -399 -805v-449
q0 -49 -35 -82.5t-83 -33.5t-82 33.5t-34 82.5v449q-233 428 -397 801q-12 26 -12 62t37 68.5t84 32.5q70 0 100 -69q117 -274 307 -633q185 341 309 635q27 68 99 67q45 0 81 -31.5t36 -78.5z" />
    <glyph glyph-name="Zcaron" unicode="&#x17d;" horiz-adv-x="1101" 
d="M1055 111q0 -45 -32 -78t-77 -33h-790q-47 0 -78 32t-31 81t35 106l657 1051h-581q-45 0 -77 33t-32 79t32 78q32 33 77 33h786q49 0 79 -32t30 -78t-37 -103l-664 -1057l594 -2q45 -1 77 -33t32 -77zM887 1953q0 -36 -33 -67l-233 -215q-29 -25 -69 -25t-67 27l-233 217
q-33 31 -33 67q0 37 26 63q27 26 57 26t58 -23l193 -163l192 161q23 21 56 21t59 -26t27 -63z" />
    <glyph glyph-name="zcaron" unicode="&#x17e;" horiz-adv-x="901" 
d="M848 950q0 -47 -33 -92l-473 -657h406q44 0 72 -30t28 -71q0 -40 -30 -70t-70 -30h-603q-39 0 -71 31t-33 73q0 42 22 74l484 672h-373q-41 0 -71 30q-29 30 -29 70t29 70q30 29 71 29h567q107 -1 107 -99zM711 1630q33 0 59 -26t27 -63q0 -36 -33 -66l-234 -215
q-28 -25 -68 -25t-67 27l-233 217q-33 31 -33 67t26 62q52 54 115 4l193 -164l192 162q23 20 56 20z" />
    <glyph glyph-name="florin" unicode="&#x192;" horiz-adv-x="827" 
d="M860 1383q0 -44 -28.5 -71.5t-71.5 -27.5h-27q-113 0 -133 -123l-20 -121h96q39 0 66.5 -26.5t27.5 -65.5t-26.5 -66.5t-67.5 -27.5h-129l-160 -917q-57 -328 -362 -328h-31q-41 0 -70.5 29.5t-29.5 70.5t29.5 69.5t70.5 28.5h16q125 0 154 152l155 895h-49
q-39 0 -66.5 27.5t-27.5 66.5t27.5 65.5t66.5 26.5h80l27 146q20 121 106 207q96 90 238 90h39q43 0 71.5 -28t28.5 -72z" />
    <glyph glyph-name="circumflex" unicode="&#x2c6;" horiz-adv-x="1085" 
d="M795 1233q-31 0 -60 22l-192 164l-193 -162q-23 -20 -55.5 -20t-59 26.5t-26.5 62.5t33 67l233 215q27 25 68 24.5t67 -26.5l234 -217q33 -31 33 -67t-25.5 -62.5t-56.5 -26.5z" />
    <glyph glyph-name="caron" unicode="&#x2c7;" horiz-adv-x="1085" 
d="M877 1541q0 -36 -33 -66l-234 -215q-28 -25 -68 -25t-67 27l-233 217q-33 31 -33 67t25.5 62t56.5 26t59 -22l193 -164l192 162q23 20 55.5 20t59.5 -26.5t27 -62.5z" />
    <glyph glyph-name="breve" unicode="&#x2d8;" horiz-adv-x="1085" 
d="M542 1237q-187 0 -309 201q-12 20 -12 50t26.5 55.5t67.5 25.5t66 -43q70 -117 161 -117t163 117q27 43 65 43t66 -24.5t28 -55.5t-14 -51q-121 -201 -308 -201z" />
    <glyph glyph-name="dotaccent" unicode="&#x2d9;" horiz-adv-x="1085" 
d="M690 1421.5q0 -61.5 -43 -105.5t-104.5 -44t-104.5 44t-43 105.5t43 104.5t104.5 43t104.5 -43t43 -104.5z" />
    <glyph glyph-name="ring" unicode="&#x2da;" horiz-adv-x="1085" 
d="M672 1420q0 54 -38 92t-90 38t-91 -38t-39 -92t37.5 -92t91 -38t91.5 38t38 92zM542 1178q-99 0 -170 70t-71 172q0 101 71.5 171t171 70t170 -70.5t70.5 -170.5t-71.5 -171t-170.5 -71z" />
    <glyph glyph-name="ogonek" unicode="&#x2db;" horiz-adv-x="1085" 
d="M786 -324q0 -66 -69 -84q-47 -12 -115 -12q-303 0 -303 244q0 33 6 67l21 121h143l-6 -96q-10 -160 176 -160l66 4q81 0 81 -84z" />
    <glyph glyph-name="tilde" unicode="&#x2dc;" horiz-adv-x="1085" 
d="M417 1364q-44 0 -77 -33t-65 -33t-56 29t-26 70q-2 76 65 123q58 45 132 45t155 -43q86 -41 125 -41q38 -1 72 31t67 32t57.5 -27.5t26.5 -68.5q2 -74 -64 -121q-128 -90 -287 -6q-81 43 -125 43z" />
    <glyph glyph-name="hungarumlaut" unicode="&#x2dd;" horiz-adv-x="1085" 
d="M265 1159q-40 0 -66.5 24.5t-26.5 50.5t10 46l135 258q29 53 84 53q23 0 45 -12q51 -27 52 -80q-1 -25 -13 -45l-151 -248q-29 -47 -69 -47zM681 1161q-40 0 -66.5 23.5t-26.5 47.5t10 48l133 258q29 53 84 53q25 0 47 -12q49 -29 49 -78q0 -27 -12 -47l-151 -248
q-27 -45 -67 -45z" />
    <glyph glyph-name="Delta" unicode="&#x394;" 
 />
    <glyph glyph-name="Delta" unicode="&#x2206;" 
 />
    <glyph glyph-name="Omega" unicode="&#x3a9;" 
 />
    <glyph glyph-name="Omega" unicode="&#x2126;" 
 />
    <glyph glyph-name="pi" unicode="&#x3c0;" 
 />
    <glyph glyph-name="endash" unicode="&#x2013;" horiz-adv-x="833" 
d="M850 580q0 -45 -31 -76t-74 -31h-655q-45 0 -75.5 31t-30.5 76t30.5 75.5t75.5 30.5h655q43 0 74 -30.5t31 -75.5z" />
    <glyph glyph-name="emdash" unicode="&#x2014;" horiz-adv-x="1617" 
d="M1634 580q0 -45 -30.5 -76t-75.5 -31h-1438q-45 0 -75.5 31t-30.5 76t30.5 75.5t75.5 30.5h1438q45 0 75.5 -30.5t30.5 -75.5z" />
    <glyph glyph-name="quoteleft" unicode="&#x2018;" horiz-adv-x="473" 
d="M236 1030q-62 0 -102 46t-40 120q0 130 87 224t141 94t53 -52q0 -24 -47 -64t-56 -93q105 -27 109 -136q0 -57 -41.5 -98t-103.5 -41z" />
    <glyph glyph-name="quoteright" unicode="&#x2019;" horiz-adv-x="473" 
d="M381 1350q0 -132 -88 -226t-140 -94t-53 51q0 25 47 66t56 92q-109 29 -109 135q0 59 41 99t103 40t102.5 -44.5t40.5 -118.5z" />
    <glyph glyph-name="quotesinglbase" unicode="&#x201a;" horiz-adv-x="473" 
d="M381 98q0 -131 -88 -224t-141 -93t-54 51q0 25 47 66t56 92q-106 27 -107 135q0 59 41 99t104 40t102.5 -46t39.5 -120z" />
    <glyph glyph-name="quotedblleft" unicode="&#x201c;" horiz-adv-x="876" 
d="M236 1030q-62 0 -102 46t-40 120q0 130 87 224t141 94t53 -52q0 -24 -47 -64t-56 -93q105 -27 109 -136q0 -57 -41.5 -98t-103.5 -41zM782 1169q0 -57 -41 -98t-102 -41t-101 46t-40 120q0 134 87 226t139 92t52 -52q0 -24 -47 -64t-55 -93q108 -30 108 -136z" />
    <glyph glyph-name="quotedblright" unicode="&#x201d;" horiz-adv-x="876" 
d="M381 1350q0 -132 -88 -226t-140 -94t-53 51q0 25 47 66t56 92q-109 29 -109 135q0 59 41 99t103 40t102.5 -44.5t40.5 -118.5zM782 1350q0 -132 -87 -226t-139 -94t-54 51q0 25 47 66t55 92q-102 27 -106 135q0 59 41 99t103 40t101 -44.5t39 -118.5z" />
    <glyph glyph-name="quotedblbase" unicode="&#x201e;" horiz-adv-x="874" 
d="M381 98q0 -131 -88 -224t-141 -93t-54 51q0 25 47 66t56 92q-106 27 -107 135q0 59 41 99t104 40t102.5 -46t39.5 -120zM780 98q0 -131 -88 -224t-141 -93t-53 51q0 25 47 66t55 92q-106 27 -106 135q0 59 40.5 99t103.5 40t102.5 -46t39.5 -120z" />
    <glyph glyph-name="dagger" unicode="&#x2020;" horiz-adv-x="1138" 
d="M1047 973q0 -41 -30 -71t-71 -30h-260v-774q0 -49 -35 -82.5t-83 -33.5t-81.5 33.5t-33.5 82.5v774h-260q-41 0 -71 30t-30 71t30 70.5t71 29.5h260v322q0 47 33.5 81.5t81.5 34.5t83 -34.5t35 -81.5v-322h260q41 0 71 -29.5t30 -70.5z" />
    <glyph glyph-name="daggerdbl" unicode="&#x2021;" horiz-adv-x="954" 
d="M954 115q0 -41 -29.5 -71t-70.5 -30h-260v-321q0 -49 -35 -83t-83 -34t-82 34t-34 83v321h-260q-41 0 -70.5 30t-29.5 71t29.5 70.5t70.5 29.5h260v657h-260q-41 0 -70.5 30t-29.5 71t29.5 70.5t70.5 29.5h260v322q0 47 34 81.5t82 34.5t83 -34.5t35 -81.5v-322h260
q41 0 70.5 -29.5t29.5 -70.5t-29.5 -71t-70.5 -30h-260v-657h260q41 0 70.5 -29.5t29.5 -70.5z" />
    <glyph glyph-name="bullet" unicode="&#x2022;" horiz-adv-x="1021" 
d="M817.5 686q-0.5 -144 -103.5 -248q-104 -104 -248 -104t-251 102q-102 106 -102 250t103 248t248.5 104t249.5 -104t103.5 -248z" />
    <glyph glyph-name="ellipsis" unicode="&#x2026;" horiz-adv-x="1601" 
d="M408 122.5q0 -59.5 -42 -100t-100 -40.5t-100.5 42t-42.5 100t41 100t100.5 42t101.5 -42t42 -101.5zM938 124q0 -58 -41 -100t-99 -42t-100.5 42t-42.5 100t41 100t100.5 42t100.5 -42t41 -100zM1470 124q0 -58 -41 -100t-99 -42t-100 42t-42 100t41 100t100.5 42
t100 -42t40.5 -100z" />
    <glyph glyph-name="perthousand" unicode="&#x2030;" horiz-adv-x="1732" 
d="M940 207v135q0 96 -88 96t-88 -96v-135q0 -98 88 -98t88 98zM430 1149v137q0 96 -88 96t-88 -96v-137q0 -96 88 -96t88 96zM1481 207v135q0 96 -88 96t-88 -96v-135q0 -98 88 -98t88 98zM1083 209q0 -106 -66.5 -166.5t-164.5 -60.5t-166 60t-68 167v129q0 106 68 168
t166 61q98 0 164.5 -61.5t66.5 -167.5v-129zM349 -18q-38 0 -58.5 19t-20.5 37t4 36l512 1392q14 45 54 45t61 -20.5t21 -38.5t-4 -35l-515 -1392q-16 -43 -54 -43zM573 1155q0 -111 -65.5 -170t-165.5 -59t-165.5 59t-65.5 170v127q0 106 66.5 167.5t164.5 61.5t164.5 -61
t66.5 -168v-127zM1624 209q0 -106 -66.5 -166.5t-164.5 -60.5t-166 60t-68 167v129q0 106 68 168t166 61q98 0 164.5 -61.5t66.5 -167.5v-129z" />
    <glyph glyph-name="guilsinglleft" unicode="&#x2039;" horiz-adv-x="745" 
d="M545 72q-43 0 -76 32l-373 385q-30 31 -30 71t30 75l373 387q31 33 75 33t74.5 -31t30.5 -73t-28 -74l-304 -314l304 -313q31 -31 31 -75t-32 -73.5t-75 -29.5z" />
    <glyph glyph-name="guilsinglright" unicode="&#x203a;" horiz-adv-x="745" 
d="M680 560q0 -40 -31 -71l-373 -385q-34 -32 -76 -32t-74 29.5t-32 73.5t31 75l303 313l-303 314q-29 33 -29 75t31 72.5t75 30.5t74 -33l373 -387q31 -35 31 -75z" />
    <glyph glyph-name="fraction" unicode="&#x2044;" horiz-adv-x="837" 
d="M141 -16q-43 0 -72.5 30.5t-29.5 62.5t8 50l557 1325q27 61 94 61q41 0 71 -29.5t30 -61.5t-8 -50l-555 -1325q-27 -63 -95 -63z" />
    <glyph glyph-name="trademark" unicode="&#x2122;" horiz-adv-x="1718" 
d="M754 1390q0 -30 -21.5 -51.5t-50.5 -21.5h-201v-680q0 -31 -21.5 -52.5t-52 -21.5t-52 21.5t-21.5 52.5v680h-201q-29 0 -50.5 21.5t-21.5 51.5t21.5 51t50.5 21h549q29 0 50.5 -21t21.5 -51zM1595 1403v-770q0 -70 -69.5 -70t-69.5 70v506l-182 -385q-23 -43 -68 -43
t-65 43l-183 383v-506q0 -29 -20 -48.5t-49 -19.5t-49.5 20.5t-20.5 47.5v772q0 70 72 70q53 0 74 -46l243 -505l248 510q23 41 68 41q71 0 71 -70z" />
    <glyph glyph-name="partialdiff" unicode="&#x2202;" 
 />
    <glyph glyph-name="product" unicode="&#x220f;" 
 />
    <glyph glyph-name="summation" unicode="&#x2211;" 
 />
    <glyph glyph-name="radical" unicode="&#x221a;" 
 />
    <glyph glyph-name="infinity" unicode="&#x221e;" 
 />
    <glyph glyph-name="integral" unicode="&#x222b;" 
 />
    <glyph glyph-name="approxequal" unicode="&#x2248;" 
 />
    <glyph glyph-name="approxequal" unicode="&#x22f2;" 
 />
    <glyph glyph-name="notequal" unicode="&#x2260;" horiz-adv-x="1236" 
d="M1069 363q0 -44 -30.5 -74.5t-75.5 -30.5h-431l-92 -205q-14 -33 -47 -33t-49 26t-4 52l70 160h-136q-45 0 -75.5 30.5t-30.5 74.5t30.5 75t75.5 31h230l106 236h-336q-45 0 -75.5 30.5t-30.5 74.5t30.5 74.5t75.5 30.5h431l90 205q14 33 51 33q55 0 55 -55q0 -10 -4 -23
l-72 -160h138q45 0 75.5 -30.5t30.5 -74.5t-30.5 -74.5t-75.5 -30.5h-232l-104 -236h336q45 0 75.5 -31t30.5 -75z" />
    <glyph glyph-name="lessequal" unicode="&#x2264;" 
 />
    <glyph glyph-name="greaterequal" unicode="&#x2265;" 
 />
    <glyph glyph-name="lozenge" unicode="&#x25ca;" 
 />
    <glyph glyph-name="apple" unicode="&#xf000;" horiz-adv-x="1110" 
d="M582 -264q16 0 16 15t-16 16h-23v-31h23zM731 489q0 227 -217 228q-104 0 -160.5 -61.5t-56.5 -166.5q0 -229 217 -229q104 0 160.5 62.5t56.5 166.5zM436 -233h-26v-70h-9v70h-26v8h61v-8zM494 -303h-9v35l-30 39l6 4l28 -37l29 37l6 -4l-30 -39v-35zM582 -225
q24 0 24 -24t-24 -23h-23v-31h-8v78h31zM690 -303h-53v78h53v-8h-45v-25h41v-8h-41v-29h45v-8zM948 811h-104q-84 0 -90 -76q92 -92 92 -245.5t-91 -240.5t-241 -87q-53 0 -98 10v-86q35 -25 154 -62t139 -47q205 -76 205 -214q0 -137 -115 -207t-253 -70t-244 60t-105 184
l92 45q-2 -6 -2 -21q0 -86 90 -133q70 -37 167 -37t167 39q88 45 88 135q0 66 -129 119q-162 55 -240 84q-129 57 -129 139q0 53 47 95q-164 80 -164 294q0 150 88 239t242 89q92 0 164 -31q6 127 145 127h17q10 0 20 -2l88 -10v-90z" />
    <glyph glyph-name="fi" unicode="&#xf001;" horiz-adv-x="1087" 
d="M647 1397q0 -41 -29.5 -71t-70.5 -30h-25q-74 0 -100.5 -38.5t-26.5 -139.5v-67h109q41 0 68.5 -28t27.5 -68t-28.5 -67.5t-67.5 -27.5h-109v-758q0 -47 -33.5 -80.5t-81 -33.5t-81 33.5t-33.5 80.5v758h-43q-39 0 -67.5 27.5t-28.5 67.5t28.5 68t67.5 28h43v86
q0 360 313 360h68q41 0 70.5 -29.5t29.5 -70.5zM942 102q0 -47 -34 -80.5t-81 -33.5t-80.5 33.5t-33.5 80.5v846q0 47 33.5 81t80.5 34t81 -34t34 -81v-846zM963 1378.5q0 -53.5 -38 -91.5t-91.5 -38t-91 38t-37.5 91.5t37.5 91t91 37.5t91.5 -37.5t38 -91z" />
    <glyph glyph-name="fl" unicode="&#xf002;" horiz-adv-x="1101" 
d="M647 1397q0 -41 -29.5 -71t-70.5 -30h-25q-74 0 -100.5 -38.5t-26.5 -139.5v-67h109q41 0 68.5 -28t27.5 -68t-28.5 -67.5t-67.5 -27.5h-109v-758q0 -47 -33.5 -80.5t-81 -33.5t-81 33.5t-33.5 80.5v758h-43q-39 0 -67.5 27.5t-28.5 67.5t28.5 68t67.5 28h43v86
q0 360 313 360h68q41 0 70.5 -29.5t29.5 -70.5zM1032 84q0 -96 -114 -96q-66 0 -119 45q-94 76 -94 215v1122q0 47 32.5 81t79.5 34t81 -34t34 -81v-1094q0 -78 63 -122q37 -29 37 -70z" />
    <glyph glyph-name="glyph221" 
 />
    <glyph glyph-name="HT" 
 />
    <glyph glyph-name="LF" 
 />
    <glyph glyph-name="nonmarkingreturn" 
 />
    <glyph glyph-name="DLE" 
 />
    <glyph glyph-name="DC1" 
 />
    <glyph glyph-name="DC2" 
 />
    <glyph glyph-name="DC3" 
 />
    <glyph glyph-name="DC4" 
 />
    <glyph glyph-name="RS" 
 />
    <glyph glyph-name="US" 
 />
    <glyph glyph-name="DEL" 
 />
    <glyph glyph-name=".null" horiz-adv-x="0" 
 />
    </font>
</defs>
</svg>
